{
  "version": "1.1.2",
  "modules": [
    {
      "id": 1,
      "plugin": "Core",
      "version": "1.1.2",
      "model": "AudioInterface",
      "params": [],
      "leftModuleId": 2,
      "data": {
        "audio": {
          "driver": 8,
          "deviceName": "Headset Earphone (Sennheiser SC60 for Lync)",
          "offset": 0,
          "maxChannels": 8,
          "sampleRate": 192000,
          "blockSize": 1024
        }
      },
      "pos": [
        92,
        0
      ]
    },
    {
      "id": 2,
      "plugin": "Fundamental",
      "version": "1.2.1",
      "model": "VCMixer",
      "params": [
        {
          "id": 0,
          "value": 1.47300005
        },
        {
          "id": 1,
          "value": 1.0
        },
        {
          "id": 2,
          "value": 1.0
        },
        {
          "id": 3,
          "value": 1.0
        },
        {
          "id": 4,
          "value": 1.0
        }
      ],
      "leftModuleId": 7,
      "rightModuleId": 1,
      "pos": [
        82,
        0
      ]
    },
    {
      "id": 3,
      "plugin": "Fundamental",
      "version": "1.2.1",
      "model": "VCO",
      "params": [
        {
          "id": 0,
          "value": 1.0
        },
        {
          "id": 1,
          "value": 1.0
        },
        {
          "id": 2,
          "value": 0.0
        },
        {
          "id": 3,
          "value": 0.0
        },
        {
          "id": 4,
          "value": 0.0
        },
        {
          "id": 5,
          "value": 0.5
        },
        {
          "id": 6,
          "value": 0.0
        }
      ],
      "leftModuleId": 5,
      "rightModuleId": 4,
      "pos": [
        43,
        0
      ]
    },
    {
      "id": 4,
      "plugin": "Fundamental",
      "version": "1.2.1",
      "model": "VCF",
      "params": [
        {
          "id": 0,
          "value": 0.0
        },
        {
          "id": 1,
          "value": 0.5
        },
        {
          "id": 2,
          "value": 0.234000027
        },
        {
          "id": 3,
          "value": 1.0
        },
        {
          "id": 4,
          "value": 0.0
        }
      ],
      "leftModuleId": 3,
      "rightModuleId": 6,
      "pos": [
        53,
        0
      ]
    },
    {
      "id": 5,
      "plugin": "Core",
      "version": "1.1.2",
      "model": "MIDIToCVInterface",
      "params": [],
      "rightModuleId": 3,
      "data": {
        "channels": 1,
        "polyMode": 0,
        "clockDivision": 24,
        "lastPitch": 8192,
        "lastMod": 0,
        "midi": {
          "driver": -11,
          "deviceName": "QWERTY keyboard (US)",
          "channel": -1
        }
      },
      "pos": [
        35,
        0
      ]
    },
    {
      "id": 6,
      "plugin": "Fundamental",
      "version": "1.2.1",
      "model": "ADSR",
      "params": [
        {
          "id": 0,
          "value": 0.258000046
        },
        {
          "id": 1,
          "value": 0.743000448
        },
        {
          "id": 2,
          "value": 0.5
        },
        {
          "id": 3,
          "value": 0.576500058
        }
      ],
      "leftModuleId": 4,
      "rightModuleId": 7,
      "pos": [
        61,
        0
      ]
    },
    {
      "id": 7,
      "plugin": "Fundamental",
      "version": "1.2.1",
      "model": "Scope",
      "params": [
        {
          "id": 0,
          "value": 0.0
        },
        {
          "id": 1,
          "value": 0.0
        },
        {
          "id": 2,
          "value": 0.0
        },
        {
          "id": 3,
          "value": 0.0
        },
        {
          "id": 4,
          "value": 14.0
        },
        {
          "id": 5,
          "value": 0.0
        },
        {
          "id": 6,
          "value": 0.0
        },
        {
          "id": 7,
          "value": 0.0
        }
      ],
      "leftModuleId": 6,
      "rightModuleId": 2,
      "data": {
        "lissajous": 0,
        "external": 0
      },
      "pos": [
        69,
        0
      ]
    },
    {
      "id": 9,
      "plugin": "AmalgamatedHarmonics",
      "version": "1.0.1",
      "model": "Generative",
      "params": [
        {
          "id": 0,
          "value": -4.72399616
        },
        {
          "id": 1,
          "value": 0.0
        },
        {
          "id": 2,
          "value": 0.5
        },
        {
          "id": 3,
          "value": 0.5
        },
        {
          "id": 4,
          "value": 1.0
        },
        {
          "id": 5,
          "value": -0.668002307
        },
        {
          "id": 6,
          "value": 0.716500044
        },
        {
          "id": 7,
          "value": 1.0
        },
        {
          "id": 8,
          "value": 1.0
        },
        {
          "id": 9,
          "value": 1.0
        },
        {
          "id": 10,
          "value": 1.29550183
        },
        {
          "id": 11,
          "value": 1.0
        },
        {
          "id": 12,
          "value": 0.0
        },
        {
          "id": 13,
          "value": 1.0
        }
      ],
      "data": {
        "quantise": false,
        "offset": false
      },
      "pos": [
        88,
        1
      ]
    },
    {
      "id": 10,
      "plugin": "Bogaudio",
      "version": "1.1.22",
      "model": "Bogaudio-SampleHold",
      "params": [
        {
          "id": 0,
          "value": 0.0
        },
        {
          "id": 1,
          "value": 0.0
        },
        {
          "id": 2,
          "value": 0.0
        },
        {
          "id": 3,
          "value": 0.0
        }
      ],
      "leftModuleId": 29,
      "data": {
        "noise_type": 0,
        "range_offset": 1.0,
        "range_scale": 5.0
      },
      "pos": [
        76,
        1
      ]
    },
    {
      "id": 11,
      "plugin": "NYSTHI",
      "version": "1.0.3",
      "model": "ScalaQuantizer",
      "params": [
        {
          "id": 0,
          "value": 0.0
        },
        {
          "id": 1,
          "value": 0.0
        },
        {
          "id": 2,
          "value": 0.0
        },
        {
          "id": 3,
          "value": 0.0
        }
      ],
      "data": {
        "m_current_octave": 0,
        "m_current_tuning": 0.0,
        "m_current_scale": "gamelan_udan.scl - Gamelan Udan Mas (approx) s6,p6,p7,s1,p1,s2,p2,p3,s3,p4,s5,p5                   ",
        "m_bypass": false,
        "m_midi_mode_offset_value": 0.0
      },
      "pos": [
        62,
        1
      ]
    },
    {
      "id": 12,
      "plugin": "Bogaudio",
      "version": "1.1.22",
      "model": "Bogaudio-Offset",
      "params": [
        {
          "id": 0,
          "value": 0.240999579
        },
        {
          "id": 1,
          "value": 0.316000015
        }
      ],
      "data": {
        "disableOutputLimit": false
      },
      "pos": [
        84,
        1
      ]
    },
    {
      "id": 13,
      "plugin": "rcm",
      "version": "1.0.1",
      "model": "rcm-pianoroll",
      "params": [
        {
          "id": 0,
          "value": 0.0
        },
        {
          "id": 1,
          "value": 0.0
        }
      ],
      "data": {
        "patterns": [
          {
            "numberOfMeasures": 1,
            "beatsPerMeasure": 5,
            "divisionsPerBeat": 1,
            "measures": [
              {
                "notes": [
                  {
                    "pitch": 57,
                    "velocity": 0.75,
                    "retrigger": true,
                    "active": true
                  },
                  {
                    "pitch": 55,
                    "velocity": 0.75,
                    "retrigger": true,
                    "active": true
                  },
                  {
                    "pitch": 53,
                    "velocity": 0.75,
                    "retrigger": true,
                    "active": true
                  },
                  {
                    "pitch": 58,
                    "velocity": 0.75,
                    "retrigger": true,
                    "active": true
                  },
                  {
                    "pitch": 51,
                    "velocity": 0.75,
                    "retrigger": true,
                    "active": true
                  }
                ]
              },
              {
                "notes": [
                  {
                    "pitch": 0,
                    "velocity": 0.0,
                    "retrigger": false,
                    "active": false
                  },
                  {
                    "pitch": 0,
                    "velocity": 0.0,
                    "retrigger": false,
                    "active": false
                  },
                  {
                    "pitch": 0,
                    "velocity": 0.0,
                    "retrigger": false,
                    "active": false
                  },
                  {
                    "pitch": 0,
                    "velocity": 0.0,
                    "retrigger": false,
                    "active": false
                  },
                  {
                    "pitch": 0,
                    "velocity": 0.0,
                    "retrigger": false,
                    "active": false
                  }
                ]
              }
            ]
          }
        ],
        "currentPattern": 0,
        "currentStep": 2,
        "clockDelay": 0,
        "sequenceRunning": true
      },
      "lowestDisplayNote": 48,
      "notesToShow": 18,
      "currentMeasure": 0,
      "pos": [
        107,
        1
      ]
    },
    {
      "id": 15,
      "plugin": "AS",
      "version": "1.0.3",
      "model": "BPMClock",
      "params": [
        {
          "id": 0,
          "value": 156.0
        },
        {
          "id": 1,
          "value": 1.0
        },
        {
          "id": 2,
          "value": 4.0
        },
        {
          "id": 3,
          "value": 1.0
        },
        {
          "id": 4,
          "value": 0.0
        },
        {
          "id": 5,
          "value": 0.0
        }
      ],
      "data": {
        "run": [
          1
        ]
      },
      "pos": [
        120,
        0
      ]
    },
    {
      "id": 16,
      "plugin": "AudibleInstruments",
      "version": "1.0.0",
      "model": "Plaits",
      "params": [
        {
          "id": 0,
          "value": 0.0
        },
        {
          "id": 1,
          "value": 0.0
        },
        {
          "id": 2,
          "value": -3.06000066
        },
        {
          "id": 3,
          "value": 0.609999716
        },
        {
          "id": 4,
          "value": 0.5
        },
        {
          "id": 5,
          "value": 0.5
        },
        {
          "id": 6,
          "value": 0.0
        },
        {
          "id": 7,
          "value": 0.0
        },
        {
          "id": 8,
          "value": -0.129999965
        }
      ],
      "data": {
        "lowCpu": false,
        "model": 12,
        "lpgColor": 0.5,
        "decay": 0.5
      },
      "pos": [
        34,
        1
      ]
    },
    {
      "id": 19,
      "plugin": "Bogaudio",
      "version": "1.1.22",
      "model": "Bogaudio-DADSRH",
      "params": [
        {
          "id": 0,
          "value": 0.0
        },
        {
          "id": 1,
          "value": 0.141420007
        },
        {
          "id": 2,
          "value": 0.862230062
        },
        {
          "id": 3,
          "value": 0.0
        },
        {
          "id": 4,
          "value": 0.688230395
        },
        {
          "id": 5,
          "value": 0.447210014
        },
        {
          "id": 6,
          "value": 1.0
        },
        {
          "id": 7,
          "value": 1.0
        },
        {
          "id": 8,
          "value": 1.0
        },
        {
          "id": 9,
          "value": 0.0
        },
        {
          "id": 10,
          "value": 1.0
        },
        {
          "id": 11,
          "value": 1.0
        },
        {
          "id": 12,
          "value": 1.0
        },
        {
          "id": 13,
          "value": 1.0
        }
      ],
      "data": {
        "triggerOnLoad": true,
        "shouldTriggerOnLoad": true
      },
      "pos": [
        47,
        1
      ]
    },
    {
      "id": 21,
      "plugin": "Bogaudio",
      "version": "1.1.22",
      "model": "Bogaudio-Mix1",
      "params": [
        {
          "id": 0,
          "value": 0.909090936
        },
        {
          "id": 1,
          "value": 0.0
        }
      ],
      "pos": [
        28,
        1
      ]
    },
    {
      "id": 22,
      "plugin": "HetrickCV",
      "version": "1.0.0",
      "model": "Dust",
      "params": [
        {
          "id": 0,
          "value": 0.699999988
        },
        {
          "id": 1,
          "value": 0.0
        }
      ],
      "leftModuleId": 31,
      "pos": [
        20,
        1
      ]
    },
    {
      "id": 23,
      "plugin": "Befaco",
      "version": "1.0.0",
      "model": "SpringReverb",
      "params": [
        {
          "id": 0,
          "value": 0.519999921
        },
        {
          "id": 1,
          "value": 0.870999932
        },
        {
          "id": 2,
          "value": 0.0
        },
        {
          "id": 3,
          "value": 0.634499907
        }
      ],
      "leftModuleId": 28,
      "rightModuleId": 25,
      "pos": [
        24,
        2
      ]
    },
    {
      "id": 24,
      "plugin": "Befaco",
      "version": "1.0.0",
      "model": "Rampage",
      "params": [
        {
          "id": 0,
          "value": 0.0
        },
        {
          "id": 1,
          "value": 0.0
        },
        {
          "id": 2,
          "value": 0.0
        },
        {
          "id": 3,
          "value": 0.0
        },
        {
          "id": 4,
          "value": 0.0
        },
        {
          "id": 5,
          "value": 0.0
        },
        {
          "id": 6,
          "value": 0.0
        },
        {
          "id": 7,
          "value": 0.0
        },
        {
          "id": 8,
          "value": 0.0
        },
        {
          "id": 9,
          "value": 0.0
        },
        {
          "id": 10,
          "value": 0.0
        },
        {
          "id": 11,
          "value": 0.0
        },
        {
          "id": 12,
          "value": 0.5
        }
      ],
      "pos": [
        114,
        2
      ]
    },
    {
      "id": 25,
      "plugin": "Bogaudio",
      "version": "1.1.22",
      "model": "Bogaudio-Shaper",
      "params": [
        {
          "id": 0,
          "value": 0.141420007
        },
        {
          "id": 1,
          "value": 0.0899999887
        },
        {
          "id": 2,
          "value": 0.19923003
        },
        {
          "id": 3,
          "value": 0.0
        },
        {
          "id": 4,
          "value": 0.0835000128
        },
        {
          "id": 5,
          "value": 0.100000001
        },
        {
          "id": 6,
          "value": 0.0
        },
        {
          "id": 7,
          "value": 1.0
        },
        {
          "id": 8,
          "value": 1.0
        }
      ],
      "leftModuleId": 23,
      "rightModuleId": 27,
      "data": {
        "triggerOnLoad": true,
        "shouldTriggerOnLoad": true
      },
      "pos": [
        32,
        2
      ]
    },
    {
      "id": 26,
      "plugin": "TheXOR",
      "version": "1.1.1",
      "model": "Spiralone",
      "params": [
        {
          "id": 0,
          "value": 0.0
        },
        {
          "id": 1,
          "value": 0.0
        },
        {
          "id": 2,
          "value": 0.207000017
        },
        {
          "id": 3,
          "value": 0.0
        },
        {
          "id": 4,
          "value": 0.253500074
        },
        {
          "id": 5,
          "value": 1.0
        },
        {
          "id": 6,
          "value": 0.0
        },
        {
          "id": 7,
          "value": 0.0
        },
        {
          "id": 8,
          "value": 0.434999973
        },
        {
          "id": 9,
          "value": 0.0
        },
        {
          "id": 10,
          "value": 0.0
        },
        {
          "id": 11,
          "value": 0.0
        },
        {
          "id": 12,
          "value": 0.0
        },
        {
          "id": 13,
          "value": 0.0
        },
        {
          "id": 14,
          "value": 0.0
        },
        {
          "id": 15,
          "value": 0.0
        },
        {
          "id": 16,
          "value": 0.0
        },
        {
          "id": 17,
          "value": 0.0
        },
        {
          "id": 18,
          "value": 0.0
        },
        {
          "id": 19,
          "value": 0.0
        },
        {
          "id": 20,
          "value": 0.0
        },
        {
          "id": 21,
          "value": 0.0
        },
        {
          "id": 22,
          "value": 0.0
        },
        {
          "id": 23,
          "value": 0.0
        },
        {
          "id": 24,
          "value": 0.0
        },
        {
          "id": 25,
          "value": 0.0
        },
        {
          "id": 26,
          "value": 0.112500004
        },
        {
          "id": 27,
          "value": 0.0
        },
        {
          "id": 28,
          "value": 0.0
        },
        {
          "id": 29,
          "value": 0.0
        },
        {
          "id": 30,
          "value": 0.0
        },
        {
          "id": 31,
          "value": 0.0
        },
        {
          "id": 32,
          "value": 0.0
        },
        {
          "id": 33,
          "value": 0.0
        },
        {
          "id": 34,
          "value": 0.0
        },
        {
          "id": 35,
          "value": 0.0
        },
        {
          "id": 36,
          "value": 0.0
        },
        {
          "id": 37,
          "value": 0.0
        },
        {
          "id": 38,
          "value": 10.0
        },
        {
          "id": 39,
          "value": 32.0
        },
        {
          "id": 40,
          "value": 32.0
        },
        {
          "id": 41,
          "value": 32.0
        },
        {
          "id": 42,
          "value": 32.0
        },
        {
          "id": 43,
          "value": 1.0
        },
        {
          "id": 44,
          "value": 1.0
        },
        {
          "id": 45,
          "value": 1.0
        },
        {
          "id": 46,
          "value": 1.0
        },
        {
          "id": 47,
          "value": 1.0
        },
        {
          "id": 48,
          "value": 0.0
        },
        {
          "id": 49,
          "value": 0.0
        },
        {
          "id": 50,
          "value": 0.0
        },
        {
          "id": 51,
          "value": 0.0
        },
        {
          "id": 52,
          "value": 0.0
        },
        {
          "id": 53,
          "value": 0.0
        },
        {
          "id": 54,
          "value": 5.0
        }
      ],
      "data": {
        "theRandomizer": 0
      },
      "pos": [
        57,
        2
      ]
    },
    {
      "id": 27,
      "plugin": "AS",
      "version": "1.0.3",
      "model": "TriLFO",
      "params": [
        {
          "id": 0,
          "value": 1.0
        },
        {
          "id": 1,
          "value": 1.0
        },
        {
          "id": 2,
          "value": -2.24199939
        },
        {
          "id": 3,
          "value": 1.0
        },
        {
          "id": 4,
          "value": 1.0
        },
        {
          "id": 5,
          "value": -1.0
        },
        {
          "id": 6,
          "value": 1.0
        },
        {
          "id": 7,
          "value": 1.0
        },
        {
          "id": 8,
          "value": -1.0
        },
        {
          "id": 9,
          "value": 0.0
        },
        {
          "id": 10,
          "value": 0.0
        },
        {
          "id": 11,
          "value": 0.0
        },
        {
          "id": 12,
          "value": 0.0
        }
      ],
      "leftModuleId": 25,
      "pos": [
        42,
        2
      ]
    },
    {
      "id": 28,
      "plugin": "NYSTHI",
      "version": "1.0.3",
      "model": "STKPitchShifter",
      "params": [
        {
          "id": 0,
          "value": 1.58599997
        },
        {
          "id": 1,
          "value": 0.680499852
        },
        {
          "id": 2,
          "value": 0.0
        }
      ],
      "rightModuleId": 23,
      "data": {
        "m_bypass": false,
        "m_pitch_deviation": 0.27700004
      },
      "pos": [
        17,
        2
      ]
    },
    {
      "id": 29,
      "plugin": "Bogaudio",
      "version": "1.1.22",
      "model": "Bogaudio-SampleHold",
      "params": [
        {
          "id": 0,
          "value": 0.0
        },
        {
          "id": 1,
          "value": 0.0
        },
        {
          "id": 2,
          "value": 0.0
        },
        {
          "id": 3,
          "value": 0.0
        }
      ],
      "rightModuleId": 10,
      "data": {
        "noise_type": 0,
        "range_offset": 1.0,
        "range_scale": 5.0
      },
      "pos": [
        73,
        1
      ]
    },
    {
      "id": 30,
      "plugin": "Bogaudio",
      "version": "1.1.22",
      "model": "Bogaudio-SampleHold",
      "params": [
        {
          "id": 0,
          "value": 0.0
        },
        {
          "id": 1,
          "value": 0.0
        },
        {
          "id": 2,
          "value": 0.0
        },
        {
          "id": 3,
          "value": 0.0
        }
      ],
      "data": {
        "noise_type": 0,
        "range_offset": 1.0,
        "range_scale": 5.0
      },
      "pos": [
        11,
        2
      ]
    },
    {
      "id": 31,
      "plugin": "LindenbergResearch",
      "version": "1.0.0",
      "model": "DIODE_VCF",
      "params": [
        {
          "id": 0,
          "value": 1.0
        },
        {
          "id": 1,
          "value": 0.085500136
        },
        {
          "id": 2,
          "value": 0.334000021
        },
        {
          "id": 3,
          "value": -0.62809974
        },
        {
          "id": 4,
          "value": 0.0
        },
        {
          "id": 5,
          "value": 0.206199914
        }
      ],
      "rightModuleId": 22,
      "gestaltID": 1,
      "gradient": true,
      "patina": false,
      "patina_a_x": -402.874023,
      "patina_a_y": -351.764282,
      "patina_b_x": -515.010193,
      "patina_b_y": -76.2119293,
      "pos": [
        4,
        1
      ]
    },
    {
      "id": 32,
      "plugin": "Bogaudio",
      "version": "1.1.22",
      "model": "Bogaudio-ADSR",
      "params": [
        {
          "id": 0,
          "value": 0.0
        },
        {
          "id": 1,
          "value": 0.370229959
        },
        {
          "id": 2,
          "value": 0.0
        },
        {
          "id": 3,
          "value": 0.580499887
        },
        {
          "id": 4,
          "value": 0.0
        }
      ],
      "pos": [
        0,
        1
      ]
    }
  ],
  "cables": [
    {
      "id": 625,
      "outputModuleId": 3,
      "outputId": 2,
      "inputModuleId": 4,
      "inputId": 3,
      "color": "#0c8e15"
    },
    {
      "id": 626,
      "outputModuleId": 2,
      "outputId": 0,
      "inputModuleId": 1,
      "inputId": 0,
      "color": "#0986ad"
    },
    {
      "id": 627,
      "outputModuleId": 2,
      "outputId": 0,
      "inputModuleId": 1,
      "inputId": 1,
      "color": "#c9b70e"
    },
    {
      "id": 628,
      "outputModuleId": 6,
      "outputId": 0,
      "inputModuleId": 4,
      "inputId": 0,
      "color": "#c91847"
    },
    {
      "id": 631,
      "outputModuleId": 4,
      "outputId": 0,
      "inputModuleId": 2,
      "inputId": 1,
      "color": "#0986ad"
    },
    {
      "id": 632,
      "outputModuleId": 2,
      "outputId": 1,
      "inputModuleId": 7,
      "inputId": 0,
      "color": "#c9b70e"
    },
    {
      "id": 633,
      "outputModuleId": 5,
      "outputId": 6,
      "inputModuleId": 6,
      "inputId": 5,
      "color": "#c91847"
    },
    {
      "id": 636,
      "outputModuleId": 9,
      "outputId": 0,
      "inputModuleId": 10,
      "inputId": 3,
      "color": "#0c8e15"
    },
    {
      "id": 639,
      "outputModuleId": 10,
      "outputId": 1,
      "inputModuleId": 12,
      "inputId": 2,
      "color": "#0c8e15"
    },
    {
      "id": 640,
      "outputModuleId": 9,
      "outputId": 3,
      "inputModuleId": 2,
      "inputId": 5,
      "color": "#0986ad"
    },
    {
      "id": 648,
      "outputModuleId": 9,
      "outputId": 4,
      "inputModuleId": 13,
      "inputId": 0,
      "color": "#0c8e15"
    },
    {
      "id": 650,
      "outputModuleId": 16,
      "outputId": 0,
      "inputModuleId": 21,
      "inputId": 2,
      "color": "#c9b70e"
    },
    {
      "id": 651,
      "outputModuleId": 21,
      "outputId": 0,
      "inputModuleId": 2,
      "inputId": 2,
      "color": "#0c8e15"
    },
    {
      "id": 652,
      "outputModuleId": 9,
      "outputId": 4,
      "inputModuleId": 19,
      "inputId": 0,
      "color": "#c91847"
    },
    {
      "id": 653,
      "outputModuleId": 19,
      "outputId": 0,
      "inputModuleId": 21,
      "inputId": 1,
      "color": "#0986ad"
    },
    {
      "id": 642,
      "outputModuleId": 13,
      "outputId": 5,
      "inputModuleId": 11,
      "inputId": 0,
      "color": "#0986ad"
    },
    {
      "id": 654,
      "outputModuleId": 11,
      "outputId": 0,
      "inputModuleId": 16,
      "inputId": 7,
      "color": "#c9b70e"
    },
    {
      "id": 656,
      "outputModuleId": 22,
      "outputId": 0,
      "inputModuleId": 23,
      "inputId": 2,
      "color": "#c91847"
    },
    {
      "id": 657,
      "outputModuleId": 15,
      "outputId": 0,
      "inputModuleId": 26,
      "inputId": 21,
      "color": "#0986ad"
    },
    {
      "id": 658,
      "outputModuleId": 23,
      "outputId": 0,
      "inputModuleId": 25,
      "inputId": 0,
      "color": "#c9b70e"
    },
    {
      "id": 659,
      "outputModuleId": 26,
      "outputId": 0,
      "inputModuleId": 25,
      "inputId": 1,
      "color": "#0986ad"
    },
    {
      "id": 661,
      "outputModuleId": 25,
      "outputId": 1,
      "inputModuleId": 22,
      "inputId": 0,
      "color": "#c91847"
    },
    {
      "id": 662,
      "outputModuleId": 27,
      "outputId": 0,
      "inputModuleId": 26,
      "inputId": 11,
      "color": "#0986ad"
    },
    {
      "id": 663,
      "outputModuleId": 25,
      "outputId": 0,
      "inputModuleId": 28,
      "inputId": 0,
      "color": "#c9b70e"
    },
    {
      "id": 664,
      "outputModuleId": 27,
      "outputId": 5,
      "inputModuleId": 30,
      "inputId": 3,
      "color": "#0c8e15"
    },
    {
      "id": 665,
      "outputModuleId": 30,
      "outputId": 1,
      "inputModuleId": 28,
      "inputId": 2,
      "color": "#c91847"
    },
    {
      "id": 666,
      "outputModuleId": 26,
      "outputId": 5,
      "inputModuleId": 30,
      "inputId": 2,
      "color": "#0986ad"
    },
    {
      "id": 655,
      "outputModuleId": 31,
      "outputId": 0,
      "inputModuleId": 2,
      "inputId": 3,
      "color": "#0c8e15"
    },
    {
      "id": 667,
      "outputModuleId": 28,
      "outputId": 0,
      "inputModuleId": 31,
      "inputId": 0,
      "color": "#c9b70e"
    },
    {
      "id": 670,
      "outputModuleId": 32,
      "outputId": 0,
      "inputModuleId": 31,
      "inputId": 1,
      "color": "#0986ad"
    },
    {
      "id": 671,
      "outputModuleId": 26,
      "outputId": 0,
      "inputModuleId": 32,
      "inputId": 0,
      "color": "#c9b70e"
    },
    {
      "id": 672,
      "outputModuleId": 32,
      "outputId": 0,
      "inputModuleId": 31,
      "inputId": 3,
      "color": "#0c8e15"
    },
    {
      "id": 673,
      "outputModuleId": 32,
      "outputId": 0,
      "inputModuleId": 31,
      "inputId": 2,
      "color": "#c91847"
    },
    {
      "id": 674,
      "outputModuleId": 32,
      "outputId": 0,
      "inputModuleId": 16,
      "inputId": 3,
      "color": "#0c8e15"
    }
  ]
}