{
  "version": "1.1.2",
  "modules": [
    {
      "id": 1,
      "plugin": "Core",
      "version": "1.1.2",
      "model": "AudioInterface",
      "params": [],
      "leftModuleId": 2,
      "data": {
        "audio": {
          "driver": 8,
          "deviceName": "Headset Earphone (Sennheiser SC60 for Lync)",
          "offset": 0,
          "maxChannels": 8,
          "sampleRate": 44100,
          "blockSize": 256
        }
      },
      "pos": [
        102,
        0
      ]
    },
    {
      "id": 2,
      "plugin": "Fundamental",
      "version": "1.2.1",
      "model": "VCMixer",
      "params": [
        {
          "id": 0,
          "value": 1.0
        },
        {
          "id": 1,
          "value": 1.0
        },
        {
          "id": 2,
          "value": 1.0
        },
        {
          "id": 3,
          "value": 1.0
        },
        {
          "id": 4,
          "value": 1.0
        }
      ],
      "leftModuleId": 7,
      "rightModuleId": 1,
      "pos": [
        92,
        0
      ]
    },
    {
      "id": 3,
      "plugin": "Fundamental",
      "version": "1.2.1",
      "model": "VCO",
      "params": [
        {
          "id": 0,
          "value": 1.0
        },
        {
          "id": 1,
          "value": 1.0
        },
        {
          "id": 2,
          "value": -2.48399734
        },
        {
          "id": 3,
          "value": 0.0
        },
        {
          "id": 4,
          "value": 0.0
        },
        {
          "id": 5,
          "value": 0.5
        },
        {
          "id": 6,
          "value": 0.0
        }
      ],
      "leftModuleId": 5,
      "rightModuleId": 4,
      "pos": [
        53,
        0
      ]
    },
    {
      "id": 4,
      "plugin": "Fundamental",
      "version": "1.2.1",
      "model": "VCF",
      "params": [
        {
          "id": 0,
          "value": 0.0
        },
        {
          "id": 1,
          "value": 0.5
        },
        {
          "id": 2,
          "value": 0.234000027
        },
        {
          "id": 3,
          "value": 1.0
        },
        {
          "id": 4,
          "value": 0.0
        }
      ],
      "leftModuleId": 3,
      "rightModuleId": 6,
      "pos": [
        63,
        0
      ]
    },
    {
      "id": 5,
      "plugin": "Core",
      "version": "1.1.2",
      "model": "MIDIToCVInterface",
      "params": [],
      "leftModuleId": 200,
      "rightModuleId": 3,
      "data": {
        "channels": 1,
        "polyMode": 0,
        "clockDivision": 24,
        "lastPitch": 8192,
        "lastMod": 0,
        "midi": {
          "driver": -11,
          "deviceName": "QWERTY keyboard (US)",
          "channel": -1
        }
      },
      "pos": [
        45,
        0
      ]
    },
    {
      "id": 6,
      "plugin": "Fundamental",
      "version": "1.2.1",
      "model": "ADSR",
      "params": [
        {
          "id": 0,
          "value": 0.258000046
        },
        {
          "id": 1,
          "value": 0.743000448
        },
        {
          "id": 2,
          "value": 0.5
        },
        {
          "id": 3,
          "value": 0.576500058
        }
      ],
      "leftModuleId": 4,
      "rightModuleId": 7,
      "pos": [
        71,
        0
      ]
    },
    {
      "id": 7,
      "plugin": "Fundamental",
      "version": "1.2.1",
      "model": "Scope",
      "params": [
        {
          "id": 0,
          "value": 0.0
        },
        {
          "id": 1,
          "value": 0.0
        },
        {
          "id": 2,
          "value": 6.0
        },
        {
          "id": 3,
          "value": 0.0
        },
        {
          "id": 4,
          "value": 14.0
        },
        {
          "id": 5,
          "value": 0.0
        },
        {
          "id": 6,
          "value": 0.0
        },
        {
          "id": 7,
          "value": 0.0
        }
      ],
      "leftModuleId": 6,
      "rightModuleId": 2,
      "data": {
        "lissajous": 0,
        "external": 0
      },
      "pos": [
        79,
        0
      ]
    },
    {
      "id": 184,
      "plugin": "NYSTHI",
      "version": "1.0.3",
      "model": "QuadSimplerSlicerQuantizer",
      "params": [],
      "leftModuleId": 185,
      "rightModuleId": 190,
      "data": {
        "m_param_values0": 16,
        "m_param_values1": 16,
        "m_param_values2": 16,
        "m_param_values3": 16,
        "m_subdivision_mode": 10
      },
      "pos": [
        115,
        1
      ]
    },
    {
      "id": 185,
      "plugin": "NYSTHI",
      "version": "1.0.3",
      "model": "QuadSimpler",
      "params": [
        {
          "id": 0,
          "value": 0.0
        },
        {
          "id": 1,
          "value": 0.0
        },
        {
          "id": 2,
          "value": 0.0
        },
        {
          "id": 3,
          "value": 0.0
        },
        {
          "id": 4,
          "value": 0.0
        },
        {
          "id": 5,
          "value": 0.0
        },
        {
          "id": 6,
          "value": 0.0
        },
        {
          "id": 7,
          "value": 0.0
        },
        {
          "id": 8,
          "value": 0.0
        },
        {
          "id": 9,
          "value": 0.0
        },
        {
          "id": 10,
          "value": 0.0
        },
        {
          "id": 11,
          "value": 0.0
        },
        {
          "id": 12,
          "value": 0.0
        },
        {
          "id": 13,
          "value": 0.0
        },
        {
          "id": 14,
          "value": 0.0
        },
        {
          "id": 15,
          "value": 0.0
        },
        {
          "id": 16,
          "value": 0.0
        },
        {
          "id": 17,
          "value": 0.0
        },
        {
          "id": 18,
          "value": 0.0
        },
        {
          "id": 19,
          "value": 0.0
        },
        {
          "id": 20,
          "value": 0.0
        },
        {
          "id": 21,
          "value": 0.0
        },
        {
          "id": 22,
          "value": 0.0
        },
        {
          "id": 23,
          "value": 0.0
        },
        {
          "id": 24,
          "value": 0.0
        },
        {
          "id": 25,
          "value": 0.811999023
        },
        {
          "id": 26,
          "value": 1.0
        },
        {
          "id": 27,
          "value": 1.0
        },
        {
          "id": 28,
          "value": 1.0
        },
        {
          "id": 29,
          "value": 0.0
        },
        {
          "id": 30,
          "value": 3.09400058
        },
        {
          "id": 31,
          "value": 1.0
        },
        {
          "id": 32,
          "value": 1.0
        },
        {
          "id": 33,
          "value": 1.0
        },
        {
          "id": 34,
          "value": 0.0
        },
        {
          "id": 35,
          "value": 0.5
        },
        {
          "id": 36,
          "value": 0.5
        },
        {
          "id": 37,
          "value": 0.5
        },
        {
          "id": 38,
          "value": 0.5
        },
        {
          "id": 39,
          "value": 0.0
        },
        {
          "id": 40,
          "value": 0.0
        },
        {
          "id": 41,
          "value": 0.0
        },
        {
          "id": 42,
          "value": 0.0
        },
        {
          "id": 43,
          "value": 0.0
        },
        {
          "id": 44,
          "value": 0.0
        },
        {
          "id": 45,
          "value": 1.0
        },
        {
          "id": 46,
          "value": 1.0
        },
        {
          "id": 47,
          "value": 1.0
        },
        {
          "id": 48,
          "value": 1.0
        },
        {
          "id": 49,
          "value": 0.0
        },
        {
          "id": 50,
          "value": 1.0
        }
      ],
      "leftModuleId": 189,
      "rightModuleId": 184,
      "data": {
        "m_busy_mode": false,
        "nysthi_id0": "XANOODA_qGutrCt5",
        "m_nysthi_file_id0": "C:\\Users\\trevorw\\DOCUME~1/Rack/plugins-v1/NYSTHI/cache/XANOODA_qGutrCt5_20191015_144441_uMpBpL.wav",
        "m_gated0": false,
        "m_oneshot0": false,
        "m_original_file_name0": "Tony w edit.wav",
        "m_cv_can_be_negative": false,
        "nysthi_id1": "XANOODA_tZLlQaqh",
        "m_nysthi_file_id1": "C:\\Users\\trevorw\\DOCUME~1/Rack/plugins-v1/NYSTHI/cache/XANOODA_tZLlQaqh_20191015_144441_TOOEbK.wav",
        "m_gated1": false,
        "m_oneshot1": false,
        "m_original_file_name1": "",
        "nysthi_id2": "XANOODA_J3TWLPX1",
        "m_nysthi_file_id2": "C:\\Users\\trevorw\\DOCUME~1/Rack/plugins-v1/NYSTHI/cache/XANOODA_J3TWLPX1_20191015_144441_qYSAjp.wav",
        "m_gated2": false,
        "m_oneshot2": false,
        "m_original_file_name2": "",
        "nysthi_id3": "XANOODA_uxt0swIs",
        "m_nysthi_file_id3": "C:\\Users\\trevorw\\DOCUME~1/Rack/plugins-v1/NYSTHI/cache/XANOODA_uxt0swIs_20191015_144441_hy1Uzj.wav",
        "m_gated3": false,
        "m_oneshot3": false,
        "m_original_file_name3": ""
      },
      "pos": [
        107,
        1
      ]
    },
    {
      "id": 186,
      "plugin": "Fundamental",
      "version": "1.2.1",
      "model": "LFO",
      "params": [
        {
          "id": 0,
          "value": 1.0
        },
        {
          "id": 1,
          "value": 0.0
        },
        {
          "id": 2,
          "value": -2.65400028
        },
        {
          "id": 3,
          "value": 0.0
        },
        {
          "id": 4,
          "value": 0.0
        },
        {
          "id": 5,
          "value": 0.5
        },
        {
          "id": 6,
          "value": 0.0
        }
      ],
      "leftModuleId": 191,
      "pos": [
        135,
        1
      ]
    },
    {
      "id": 188,
      "plugin": "VultModulesFree",
      "version": "1.3.0",
      "model": "Trummor",
      "params": [
        {
          "id": 0,
          "value": 1.0
        },
        {
          "id": 1,
          "value": 0.153000012
        },
        {
          "id": 2,
          "value": 0.0
        },
        {
          "id": 3,
          "value": 0.786000073
        },
        {
          "id": 4,
          "value": 0.141000032
        },
        {
          "id": 5,
          "value": 0.0
        },
        {
          "id": 6,
          "value": 0.0500000007
        },
        {
          "id": 7,
          "value": 0.0500000007
        },
        {
          "id": 8,
          "value": 0.0288000144
        },
        {
          "id": 9,
          "value": 0.5
        },
        {
          "id": 10,
          "value": 0.0
        },
        {
          "id": 11,
          "value": -0.699999988
        },
        {
          "id": 12,
          "value": 0.0
        },
        {
          "id": 13,
          "value": 0.0
        },
        {
          "id": 14,
          "value": 0.0
        },
        {
          "id": 15,
          "value": 0.0
        },
        {
          "id": 16,
          "value": 0.722499847
        },
        {
          "id": 17,
          "value": 0.215999976
        },
        {
          "id": 18,
          "value": 0.0
        },
        {
          "id": 19,
          "value": 4.0
        },
        {
          "id": 20,
          "value": 0.0
        }
      ],
      "leftModuleId": 193,
      "pos": [
        38,
        1
      ]
    },
    {
      "id": 189,
      "plugin": "AS",
      "version": "1.0.3",
      "model": "SEQ16",
      "params": [
        {
          "id": 0,
          "value": 2.65199757
        },
        {
          "id": 1,
          "value": 0.0
        },
        {
          "id": 2,
          "value": 0.0
        },
        {
          "id": 3,
          "value": 16.0
        },
        {
          "id": 4,
          "value": 0.0
        },
        {
          "id": 5,
          "value": 0.0
        },
        {
          "id": 6,
          "value": 0.0
        },
        {
          "id": 7,
          "value": 0.0
        },
        {
          "id": 8,
          "value": 4.21500063
        },
        {
          "id": 9,
          "value": 0.0
        },
        {
          "id": 10,
          "value": 4.68000078
        },
        {
          "id": 11,
          "value": 0.0
        },
        {
          "id": 12,
          "value": 4.24500036
        },
        {
          "id": 13,
          "value": 0.0
        },
        {
          "id": 14,
          "value": 6.16499996
        },
        {
          "id": 15,
          "value": 0.0
        },
        {
          "id": 16,
          "value": 3.14999986
        },
        {
          "id": 17,
          "value": 1.95000005
        },
        {
          "id": 18,
          "value": 0.0
        },
        {
          "id": 19,
          "value": 2.62500072
        },
        {
          "id": 20,
          "value": 6.25500059
        },
        {
          "id": 21,
          "value": 0.0
        },
        {
          "id": 22,
          "value": 3.92999983
        },
        {
          "id": 23,
          "value": 0.0
        },
        {
          "id": 24,
          "value": 10.0
        },
        {
          "id": 25,
          "value": 0.0
        },
        {
          "id": 26,
          "value": 0.0
        },
        {
          "id": 27,
          "value": 0.0
        },
        {
          "id": 28,
          "value": 10.0
        },
        {
          "id": 29,
          "value": 0.0
        },
        {
          "id": 30,
          "value": 0.0
        },
        {
          "id": 31,
          "value": 0.0
        },
        {
          "id": 32,
          "value": 9.97000027
        },
        {
          "id": 33,
          "value": 0.0
        },
        {
          "id": 34,
          "value": 0.0
        },
        {
          "id": 35,
          "value": 0.0
        },
        {
          "id": 36,
          "value": 9.95499897
        },
        {
          "id": 37,
          "value": 0.0
        },
        {
          "id": 38,
          "value": 0.0
        },
        {
          "id": 39,
          "value": 0.0
        },
        {
          "id": 40,
          "value": 0.0
        },
        {
          "id": 41,
          "value": 0.0
        },
        {
          "id": 42,
          "value": 0.0
        },
        {
          "id": 43,
          "value": 0.0
        },
        {
          "id": 44,
          "value": 0.0
        },
        {
          "id": 45,
          "value": 0.0
        },
        {
          "id": 46,
          "value": 0.0
        },
        {
          "id": 47,
          "value": 0.0
        },
        {
          "id": 48,
          "value": 0.0
        },
        {
          "id": 49,
          "value": 0.0
        },
        {
          "id": 50,
          "value": 0.0
        },
        {
          "id": 51,
          "value": 0.0
        },
        {
          "id": 52,
          "value": 0.0
        },
        {
          "id": 53,
          "value": 0.0
        },
        {
          "id": 54,
          "value": 0.0
        },
        {
          "id": 55,
          "value": 0.0
        },
        {
          "id": 56,
          "value": 0.0
        },
        {
          "id": 57,
          "value": 0.0
        },
        {
          "id": 58,
          "value": 0.0
        },
        {
          "id": 59,
          "value": 0.0
        },
        {
          "id": 60,
          "value": 0.0
        },
        {
          "id": 61,
          "value": 0.0
        },
        {
          "id": 62,
          "value": 0.0
        },
        {
          "id": 63,
          "value": 0.0
        },
        {
          "id": 64,
          "value": 0.0
        },
        {
          "id": 65,
          "value": 0.0
        },
        {
          "id": 66,
          "value": 0.0
        },
        {
          "id": 67,
          "value": 0.0
        },
        {
          "id": 68,
          "value": 0.0
        },
        {
          "id": 69,
          "value": 0.0
        },
        {
          "id": 70,
          "value": 0.0
        },
        {
          "id": 71,
          "value": 0.0
        }
      ],
      "rightModuleId": 185,
      "data": {
        "running": true,
        "gates": [
          1,
          1,
          1,
          1,
          1,
          1,
          1,
          1,
          1,
          1,
          1,
          1,
          1,
          1,
          1,
          1
        ],
        "seq_gate_mode": 0
      },
      "pos": [
        63,
        1
      ]
    },
    {
      "id": 190,
      "plugin": "NYSTHI",
      "version": "1.0.3",
      "model": "PolyLPG",
      "params": [
        {
          "id": 0,
          "value": 0.0
        },
        {
          "id": 1,
          "value": 1.0
        },
        {
          "id": 2,
          "value": 1.0
        },
        {
          "id": 3,
          "value": 0.0
        },
        {
          "id": 4,
          "value": 0.0
        },
        {
          "id": 5,
          "value": 0.0
        }
      ],
      "leftModuleId": 184,
      "data": {
        "m_VCALP_mode": 0,
        "m_vactrol_speed0": 1,
        "m_vactrol_lineartities0": false
      },
      "pos": [
        119,
        1
      ]
    },
    {
      "id": 191,
      "plugin": "Bogaudio",
      "version": "1.1.22",
      "model": "Bogaudio-AD",
      "params": [
        {
          "id": 0,
          "value": 0.0
        },
        {
          "id": 1,
          "value": 0.0404999927
        },
        {
          "id": 2,
          "value": 0.0
        },
        {
          "id": 3,
          "value": 0.0
        }
      ],
      "rightModuleId": 186,
      "pos": [
        132,
        1
      ]
    },
    {
      "id": 192,
      "plugin": "RJModules",
      "version": "1.0.1",
      "model": "RangeLFO",
      "params": [
        {
          "id": 0,
          "value": 0.0
        },
        {
          "id": 1,
          "value": 0.0
        },
        {
          "id": 2,
          "value": -4.65399361
        },
        {
          "id": 3,
          "value": 0.0
        },
        {
          "id": 4,
          "value": 0.0
        },
        {
          "id": 5,
          "value": 0.5
        },
        {
          "id": 6,
          "value": 0.0
        },
        {
          "id": 7,
          "value": 0.0960011482
        },
        {
          "id": 8,
          "value": 1.12800217
        }
      ],
      "rightModuleId": 198,
      "pos": [
        128,
        0
      ]
    },
    {
      "id": 193,
      "plugin": "Hora-treasureFree",
      "version": "1.0.1",
      "model": "HiHat",
      "params": [
        {
          "id": 0,
          "value": 0.633350432
        },
        {
          "id": 1,
          "value": 0.301050007
        },
        {
          "id": 2,
          "value": 0.751859784
        },
        {
          "id": 3,
          "value": 0.0
        },
        {
          "id": 4,
          "value": 0.794700027
        },
        {
          "id": 5,
          "value": 0.0
        },
        {
          "id": 6,
          "value": 1.88950038
        },
        {
          "id": 7,
          "value": 0.800000012
        },
        {
          "id": 8,
          "value": 0.800000012
        },
        {
          "id": 9,
          "value": 0.600000024
        },
        {
          "id": 10,
          "value": 0.100000001
        },
        {
          "id": 11,
          "value": 0.849000156
        }
      ],
      "leftModuleId": 197,
      "rightModuleId": 188,
      "pos": [
        30,
        1
      ]
    },
    {
      "id": 194,
      "plugin": "Fundamental",
      "version": "1.2.1",
      "model": "SEQ3",
      "params": [
        {
          "id": 0,
          "value": 2.70800114
        },
        {
          "id": 1,
          "value": 0.0
        },
        {
          "id": 2,
          "value": 0.0
        },
        {
          "id": 3,
          "value": 8.0
        },
        {
          "id": 4,
          "value": 0.0
        },
        {
          "id": 5,
          "value": 0.0
        },
        {
          "id": 6,
          "value": 0.0
        },
        {
          "id": 7,
          "value": 0.0
        },
        {
          "id": 8,
          "value": 0.0
        },
        {
          "id": 9,
          "value": 0.0
        },
        {
          "id": 10,
          "value": 0.0
        },
        {
          "id": 11,
          "value": 0.0
        },
        {
          "id": 12,
          "value": 0.0
        },
        {
          "id": 13,
          "value": 0.0
        },
        {
          "id": 14,
          "value": 0.0
        },
        {
          "id": 15,
          "value": 0.0
        },
        {
          "id": 16,
          "value": 0.0
        },
        {
          "id": 17,
          "value": 0.0
        },
        {
          "id": 18,
          "value": 0.0
        },
        {
          "id": 19,
          "value": 0.0
        },
        {
          "id": 20,
          "value": 0.0
        },
        {
          "id": 21,
          "value": 0.0
        },
        {
          "id": 22,
          "value": 0.0
        },
        {
          "id": 23,
          "value": 0.0
        },
        {
          "id": 24,
          "value": 0.0
        },
        {
          "id": 25,
          "value": 0.0
        },
        {
          "id": 26,
          "value": 0.0
        },
        {
          "id": 27,
          "value": 0.0
        },
        {
          "id": 28,
          "value": 0.0
        },
        {
          "id": 29,
          "value": 0.0
        },
        {
          "id": 30,
          "value": 0.0
        },
        {
          "id": 31,
          "value": 0.0
        },
        {
          "id": 32,
          "value": 0.0
        },
        {
          "id": 33,
          "value": 0.0
        },
        {
          "id": 34,
          "value": 0.0
        },
        {
          "id": 35,
          "value": 0.0
        }
      ],
      "rightModuleId": 203,
      "data": {
        "running": true,
        "gates": [
          1,
          0,
          1,
          1,
          0,
          0,
          0,
          0
        ]
      },
      "pos": [
        38,
        2
      ]
    },
    {
      "id": 195,
      "plugin": "AS",
      "version": "1.0.3",
      "model": "BPMClock",
      "params": [
        {
          "id": 0,
          "value": 83.0
        },
        {
          "id": 1,
          "value": 1.0
        },
        {
          "id": 2,
          "value": 4.0
        },
        {
          "id": 3,
          "value": 1.0
        },
        {
          "id": 4,
          "value": 0.0
        },
        {
          "id": 5,
          "value": 0.0
        }
      ],
      "data": {
        "run": [
          1
        ]
      },
      "pos": [
        93,
        2
      ]
    },
    {
      "id": 196,
      "plugin": "AS",
      "version": "1.0.3",
      "model": "BPMClock",
      "params": [
        {
          "id": 0,
          "value": 86.0
        },
        {
          "id": 1,
          "value": 1.0
        },
        {
          "id": 2,
          "value": 4.0
        },
        {
          "id": 3,
          "value": 1.0
        },
        {
          "id": 4,
          "value": 0.0
        },
        {
          "id": 5,
          "value": 0.0
        }
      ],
      "data": {
        "run": [
          1
        ]
      },
      "pos": [
        79,
        2
      ]
    },
    {
      "id": 197,
      "plugin": "Hora-treasureFree",
      "version": "1.0.1",
      "model": "SoftBell",
      "params": [
        {
          "id": 0,
          "value": 1.0
        },
        {
          "id": 1,
          "value": 0.0
        },
        {
          "id": 2,
          "value": 0.300000012
        },
        {
          "id": 3,
          "value": 1.0
        },
        {
          "id": 4,
          "value": 0.0
        },
        {
          "id": 5,
          "value": 0.448498636
        },
        {
          "id": 6,
          "value": 0.0
        },
        {
          "id": 7,
          "value": 1.0
        },
        {
          "id": 8,
          "value": 0.800000012
        }
      ],
      "leftModuleId": 201,
      "rightModuleId": 193,
      "pos": [
        22,
        1
      ]
    },
    {
      "id": 198,
      "plugin": "Fundamental",
      "version": "1.2.1",
      "model": "ADSR",
      "params": [
        {
          "id": 0,
          "value": 0.0
        },
        {
          "id": 1,
          "value": 0.396000028
        },
        {
          "id": 2,
          "value": 0.0
        },
        {
          "id": 3,
          "value": 0.0179999992
        }
      ],
      "leftModuleId": 192,
      "pos": [
        138,
        0
      ]
    },
    {
      "id": 199,
      "plugin": "Bogaudio",
      "version": "1.1.22",
      "model": "Bogaudio-CVD",
      "params": [
        {
          "id": 0,
          "value": 0.519000053
        },
        {
          "id": 1,
          "value": 1.0
        },
        {
          "id": 2,
          "value": 1.0
        }
      ],
      "pos": [
        59,
        1
      ]
    },
    {
      "id": 200,
      "plugin": "mscHack",
      "version": "1.0.2",
      "model": "Mix_16_4_4",
      "params": [
        {
          "id": 0,
          "value": 0.750499964
        },
        {
          "id": 1,
          "value": 0.479999989
        },
        {
          "id": 2,
          "value": 0.936000407
        },
        {
          "id": 3,
          "value": 0.609000146
        },
        {
          "id": 4,
          "value": 0.392999709
        },
        {
          "id": 5,
          "value": 0.852000296
        },
        {
          "id": 6,
          "value": 0.825000226
        },
        {
          "id": 7,
          "value": 0.0
        },
        {
          "id": 8,
          "value": 0.0
        },
        {
          "id": 9,
          "value": 0.0
        },
        {
          "id": 10,
          "value": 0.0
        },
        {
          "id": 11,
          "value": 0.0
        },
        {
          "id": 12,
          "value": 0.0
        },
        {
          "id": 13,
          "value": 0.0
        },
        {
          "id": 14,
          "value": 0.0
        },
        {
          "id": 15,
          "value": 0.0
        },
        {
          "id": 16,
          "value": 0.0
        },
        {
          "id": 17,
          "value": 0.0
        },
        {
          "id": 18,
          "value": 0.0
        },
        {
          "id": 19,
          "value": 0.0
        },
        {
          "id": 20,
          "value": 0.0
        },
        {
          "id": 21,
          "value": 0.0
        },
        {
          "id": 22,
          "value": 0.0
        },
        {
          "id": 23,
          "value": 0.0
        },
        {
          "id": 24,
          "value": 0.0
        },
        {
          "id": 25,
          "value": 0.0
        },
        {
          "id": 26,
          "value": 0.0
        },
        {
          "id": 27,
          "value": 0.0
        },
        {
          "id": 28,
          "value": 0.0
        },
        {
          "id": 29,
          "value": 0.0
        },
        {
          "id": 30,
          "value": 0.0
        },
        {
          "id": 31,
          "value": 0.0
        },
        {
          "id": 32,
          "value": 0.0
        },
        {
          "id": 33,
          "value": 0.0
        },
        {
          "id": 34,
          "value": 0.0
        },
        {
          "id": 35,
          "value": 0.0
        },
        {
          "id": 36,
          "value": 0.0
        },
        {
          "id": 37,
          "value": 0.0
        },
        {
          "id": 38,
          "value": 0.0
        },
        {
          "id": 39,
          "value": 0.0
        },
        {
          "id": 40,
          "value": 0.0
        },
        {
          "id": 41,
          "value": 0.0
        },
        {
          "id": 42,
          "value": 0.0
        },
        {
          "id": 43,
          "value": 0.0
        },
        {
          "id": 44,
          "value": 0.0
        },
        {
          "id": 45,
          "value": 0.0
        },
        {
          "id": 46,
          "value": 0.0
        },
        {
          "id": 47,
          "value": 0.0
        },
        {
          "id": 48,
          "value": 0.0
        },
        {
          "id": 49,
          "value": 0.5
        },
        {
          "id": 50,
          "value": 0.5
        },
        {
          "id": 51,
          "value": 0.5
        },
        {
          "id": 52,
          "value": 0.5
        },
        {
          "id": 53,
          "value": 0.5
        },
        {
          "id": 54,
          "value": 0.5
        },
        {
          "id": 55,
          "value": 0.5
        },
        {
          "id": 56,
          "value": 0.5
        },
        {
          "id": 57,
          "value": 0.5
        },
        {
          "id": 58,
          "value": 0.5
        },
        {
          "id": 59,
          "value": 0.5
        },
        {
          "id": 60,
          "value": 0.5
        },
        {
          "id": 61,
          "value": 0.5
        },
        {
          "id": 62,
          "value": 0.5
        },
        {
          "id": 63,
          "value": 0.5
        },
        {
          "id": 64,
          "value": 0.5
        },
        {
          "id": 65,
          "value": 0.5
        },
        {
          "id": 66,
          "value": 0.5
        },
        {
          "id": 67,
          "value": 0.5
        },
        {
          "id": 68,
          "value": 0.5
        },
        {
          "id": 69,
          "value": 0.5
        },
        {
          "id": 70,
          "value": 0.5
        },
        {
          "id": 71,
          "value": 0.5
        },
        {
          "id": 72,
          "value": 0.5
        },
        {
          "id": 73,
          "value": 0.5
        },
        {
          "id": 74,
          "value": 0.5
        },
        {
          "id": 75,
          "value": 0.5
        },
        {
          "id": 76,
          "value": 0.5
        },
        {
          "id": 77,
          "value": 0.5
        },
        {
          "id": 78,
          "value": 0.5
        },
        {
          "id": 79,
          "value": 0.5
        },
        {
          "id": 80,
          "value": 0.5
        },
        {
          "id": 81,
          "value": 0.5
        },
        {
          "id": 82,
          "value": 0.5
        },
        {
          "id": 83,
          "value": 0.5
        },
        {
          "id": 84,
          "value": 0.5
        },
        {
          "id": 85,
          "value": 0.5
        },
        {
          "id": 86,
          "value": 0.5
        },
        {
          "id": 87,
          "value": 0.5
        },
        {
          "id": 88,
          "value": 0.5
        },
        {
          "id": 89,
          "value": 0.5
        },
        {
          "id": 90,
          "value": 0.5
        },
        {
          "id": 91,
          "value": 0.5
        },
        {
          "id": 92,
          "value": 0.5
        },
        {
          "id": 93,
          "value": 0.5
        },
        {
          "id": 94,
          "value": 0.5
        },
        {
          "id": 95,
          "value": 0.5
        },
        {
          "id": 96,
          "value": 0.5
        },
        {
          "id": 97,
          "value": 0.5
        },
        {
          "id": 98,
          "value": 0.0
        },
        {
          "id": 99,
          "value": 0.5
        },
        {
          "id": 100,
          "value": 0.5
        },
        {
          "id": 101,
          "value": 0.216000035
        },
        {
          "id": 102,
          "value": 0.5
        },
        {
          "id": 103,
          "value": 0.5
        },
        {
          "id": 104,
          "value": 0.5
        },
        {
          "id": 105,
          "value": 0.5
        },
        {
          "id": 106,
          "value": 0.5
        },
        {
          "id": 107,
          "value": 0.5
        },
        {
          "id": 108,
          "value": 0.5
        },
        {
          "id": 109,
          "value": 0.5
        },
        {
          "id": 110,
          "value": 0.5
        },
        {
          "id": 111,
          "value": 0.5
        },
        {
          "id": 112,
          "value": 0.5
        },
        {
          "id": 113,
          "value": 0.5
        },
        {
          "id": 114,
          "value": 0.5
        },
        {
          "id": 115,
          "value": 0.5
        },
        {
          "id": 116,
          "value": 0.5
        },
        {
          "id": 117,
          "value": 0.5
        },
        {
          "id": 118,
          "value": 0.5
        },
        {
          "id": 119,
          "value": 0.5
        },
        {
          "id": 120,
          "value": 0.5
        },
        {
          "id": 121,
          "value": 0.0
        },
        {
          "id": 122,
          "value": 0.0
        },
        {
          "id": 123,
          "value": 0.0
        },
        {
          "id": 124,
          "value": 0.0
        },
        {
          "id": 125,
          "value": 0.0
        },
        {
          "id": 126,
          "value": 0.0
        },
        {
          "id": 127,
          "value": 0.0
        },
        {
          "id": 128,
          "value": 0.0
        },
        {
          "id": 129,
          "value": 0.0
        },
        {
          "id": 130,
          "value": 0.0
        },
        {
          "id": 131,
          "value": 0.0
        },
        {
          "id": 132,
          "value": 0.0
        },
        {
          "id": 133,
          "value": 0.0
        },
        {
          "id": 134,
          "value": 0.0
        },
        {
          "id": 135,
          "value": 0.0
        },
        {
          "id": 136,
          "value": 0.0
        },
        {
          "id": 137,
          "value": 0.0
        },
        {
          "id": 138,
          "value": 0.0
        },
        {
          "id": 139,
          "value": 0.0
        },
        {
          "id": 140,
          "value": 0.0
        },
        {
          "id": 141,
          "value": 0.0
        },
        {
          "id": 142,
          "value": 0.0
        },
        {
          "id": 143,
          "value": 0.0
        },
        {
          "id": 144,
          "value": 0.0
        },
        {
          "id": 145,
          "value": 0.0
        },
        {
          "id": 146,
          "value": 0.0
        },
        {
          "id": 147,
          "value": 0.0
        },
        {
          "id": 148,
          "value": 0.0
        },
        {
          "id": 149,
          "value": 0.0
        },
        {
          "id": 150,
          "value": 0.0
        },
        {
          "id": 151,
          "value": 0.0
        },
        {
          "id": 152,
          "value": 0.0
        },
        {
          "id": 153,
          "value": 0.0
        },
        {
          "id": 154,
          "value": 0.0
        },
        {
          "id": 155,
          "value": 0.0
        },
        {
          "id": 156,
          "value": 0.0
        },
        {
          "id": 157,
          "value": 0.0
        },
        {
          "id": 158,
          "value": 0.0
        },
        {
          "id": 159,
          "value": 0.0
        },
        {
          "id": 160,
          "value": 0.0
        },
        {
          "id": 161,
          "value": 0.0
        },
        {
          "id": 162,
          "value": 0.0
        },
        {
          "id": 163,
          "value": 0.0
        },
        {
          "id": 164,
          "value": 0.0
        },
        {
          "id": 165,
          "value": 0.0
        },
        {
          "id": 166,
          "value": 0.0
        },
        {
          "id": 167,
          "value": 0.0
        },
        {
          "id": 168,
          "value": 0.0
        },
        {
          "id": 169,
          "value": 0.0
        },
        {
          "id": 170,
          "value": 0.0
        },
        {
          "id": 171,
          "value": 0.0
        },
        {
          "id": 172,
          "value": 0.0
        },
        {
          "id": 173,
          "value": 0.0
        },
        {
          "id": 174,
          "value": 0.0
        },
        {
          "id": 175,
          "value": 0.0
        },
        {
          "id": 176,
          "value": 0.0
        },
        {
          "id": 177,
          "value": 0.0
        },
        {
          "id": 178,
          "value": 0.0
        },
        {
          "id": 179,
          "value": 0.0
        },
        {
          "id": 180,
          "value": 0.0
        },
        {
          "id": 181,
          "value": 0.0
        },
        {
          "id": 182,
          "value": 0.0
        },
        {
          "id": 183,
          "value": 0.0
        },
        {
          "id": 184,
          "value": 0.0
        },
        {
          "id": 185,
          "value": 0.0
        },
        {
          "id": 186,
          "value": 0.0
        },
        {
          "id": 187,
          "value": 0.0
        },
        {
          "id": 188,
          "value": 0.0
        },
        {
          "id": 189,
          "value": 0.0
        },
        {
          "id": 190,
          "value": 0.0
        },
        {
          "id": 191,
          "value": 0.0
        },
        {
          "id": 192,
          "value": 0.0
        },
        {
          "id": 193,
          "value": 0.0
        },
        {
          "id": 194,
          "value": 0.0
        },
        {
          "id": 195,
          "value": 0.0
        },
        {
          "id": 196,
          "value": 0.0
        },
        {
          "id": 197,
          "value": 0.0
        },
        {
          "id": 198,
          "value": 0.0
        },
        {
          "id": 199,
          "value": 0.0
        },
        {
          "id": 200,
          "value": 0.0
        },
        {
          "id": 201,
          "value": 0.0
        },
        {
          "id": 202,
          "value": 0.0
        },
        {
          "id": 203,
          "value": 0.0
        },
        {
          "id": 204,
          "value": 0.0
        }
      ],
      "rightModuleId": 5,
      "data": {
        "m_bMuteStates": [
          false,
          true,
          false,
          false,
          false,
          false,
          false,
          false,
          false,
          false,
          false,
          false,
          false,
          false,
          false,
          false,
          false,
          false,
          false,
          false,
          false,
          false,
          false,
          false
        ],
        "m_bSoloStates": [
          false,
          false,
          false,
          false,
          false,
          false,
          false,
          false,
          false,
          false,
          false,
          false,
          false,
          false,
          false,
          false,
          false,
          false,
          false,
          false,
          false,
          false,
          false,
          false
        ],
        "m_iRouteGroup": [
          4,
          4,
          4,
          4,
          4,
          4,
          4,
          4,
          4,
          4,
          4,
          4,
          4,
          4,
          4,
          4
        ],
        "m_bGroupPreMute": [
          true
        ],
        "m_bGainLevelx2": [
          false
        ],
        "m_bPreFader": [
          false,
          false,
          false,
          false,
          false,
          false,
          false,
          false,
          false,
          false,
          false,
          false,
          false,
          false,
          false,
          false,
          false,
          false,
          false,
          false
        ],
        "m_bAuxIgnoreSolo": [
          false
        ]
      },
      "pos": [
        0,
        0
      ]
    },
    {
      "id": 201,
      "plugin": "AudibleInstruments",
      "version": "1.0.0",
      "model": "Clouds",
      "params": [
        {
          "id": 0,
          "value": 0.0
        },
        {
          "id": 1,
          "value": 0.0
        },
        {
          "id": 2,
          "value": 0.0
        },
        {
          "id": 3,
          "value": 0.077499941
        },
        {
          "id": 4,
          "value": 0.352000058
        },
        {
          "id": 5,
          "value": -2.0
        },
        {
          "id": 6,
          "value": 0.711000264
        },
        {
          "id": 7,
          "value": 0.99999994
        },
        {
          "id": 8,
          "value": 0.900999963
        },
        {
          "id": 9,
          "value": 1.0
        },
        {
          "id": 10,
          "value": 0.0
        },
        {
          "id": 11,
          "value": 0.197999984
        },
        {
          "id": 12,
          "value": 0.0
        }
      ],
      "rightModuleId": 197,
      "data": {
        "playback": 0,
        "quality": 0,
        "blendMode": 1
      },
      "pos": [
        4,
        1
      ]
    },
    {
      "id": 202,
      "plugin": "Fundamental",
      "version": "1.2.1",
      "model": "SEQ3",
      "params": [
        {
          "id": 0,
          "value": 0.0439985394
        },
        {
          "id": 1,
          "value": 0.0
        },
        {
          "id": 2,
          "value": 0.0
        },
        {
          "id": 3,
          "value": 8.0
        },
        {
          "id": 4,
          "value": 2.05500031
        },
        {
          "id": 5,
          "value": 2.94000006
        },
        {
          "id": 6,
          "value": 4.875
        },
        {
          "id": 7,
          "value": 5.9550004
        },
        {
          "id": 8,
          "value": 3.58500075
        },
        {
          "id": 9,
          "value": 1.88999999
        },
        {
          "id": 10,
          "value": 1.45500004
        },
        {
          "id": 11,
          "value": 4.12500095
        },
        {
          "id": 12,
          "value": 0.0
        },
        {
          "id": 13,
          "value": 0.0
        },
        {
          "id": 14,
          "value": 0.0
        },
        {
          "id": 15,
          "value": 0.0
        },
        {
          "id": 16,
          "value": 0.0
        },
        {
          "id": 17,
          "value": 0.0
        },
        {
          "id": 18,
          "value": 0.0
        },
        {
          "id": 19,
          "value": 0.0
        },
        {
          "id": 20,
          "value": 0.0
        },
        {
          "id": 21,
          "value": 0.0
        },
        {
          "id": 22,
          "value": 0.0
        },
        {
          "id": 23,
          "value": 0.0
        },
        {
          "id": 24,
          "value": 0.0
        },
        {
          "id": 25,
          "value": 0.0
        },
        {
          "id": 26,
          "value": 0.0
        },
        {
          "id": 27,
          "value": 0.0
        },
        {
          "id": 28,
          "value": 0.0
        },
        {
          "id": 29,
          "value": 0.0
        },
        {
          "id": 30,
          "value": 0.0
        },
        {
          "id": 31,
          "value": 0.0
        },
        {
          "id": 32,
          "value": 0.0
        },
        {
          "id": 33,
          "value": 0.0
        },
        {
          "id": 34,
          "value": 0.0
        },
        {
          "id": 35,
          "value": 0.0
        }
      ],
      "data": {
        "running": true,
        "gates": [
          1,
          1,
          1,
          1,
          1,
          1,
          1,
          1
        ]
      },
      "pos": [
        6,
        2
      ]
    },
    {
      "id": 203,
      "plugin": "LindenbergResearch",
      "version": "1.0.0",
      "model": "VCF",
      "params": [
        {
          "id": 0,
          "value": 0.0
        },
        {
          "id": 1,
          "value": 0.631500006
        },
        {
          "id": 2,
          "value": 0.18749994
        },
        {
          "id": 3,
          "value": 1.98000002
        },
        {
          "id": 4,
          "value": 1.0
        },
        {
          "id": 5,
          "value": 0.903499484
        },
        {
          "id": 6,
          "value": 0.0
        }
      ],
      "leftModuleId": 194,
      "gestaltID": 1,
      "gradient": true,
      "patina": false,
      "patina_a_x": -1037.13745,
      "patina_a_y": -422.570282,
      "patina_b_x": -121.496704,
      "patina_b_y": -206.593384,
      "pos": [
        60,
        2
      ]
    },
    {
      "id": 205,
      "plugin": "Fundamental",
      "version": "1.2.1",
      "model": "ADSR",
      "params": [
        {
          "id": 0,
          "value": 0.0
        },
        {
          "id": 1,
          "value": 0.640500307
        },
        {
          "id": 2,
          "value": 0.0
        },
        {
          "id": 3,
          "value": 0.580000103
        }
      ],
      "pos": [
        110,
        2
      ]
    }
  ],
  "cables": [
    {
      "id": 762,
      "outputModuleId": 5,
      "outputId": 0,
      "inputModuleId": 3,
      "inputId": 0,
      "color": "#c91847"
    },
    {
      "id": 763,
      "outputModuleId": 3,
      "outputId": 2,
      "inputModuleId": 4,
      "inputId": 3,
      "color": "#0c8e15"
    },
    {
      "id": 766,
      "outputModuleId": 6,
      "outputId": 0,
      "inputModuleId": 4,
      "inputId": 0,
      "color": "#c91847"
    },
    {
      "id": 767,
      "outputModuleId": 5,
      "outputId": 1,
      "inputModuleId": 6,
      "inputId": 4,
      "color": "#c9b70e"
    },
    {
      "id": 770,
      "outputModuleId": 2,
      "outputId": 1,
      "inputModuleId": 7,
      "inputId": 0,
      "color": "#c9b70e"
    },
    {
      "id": 771,
      "outputModuleId": 5,
      "outputId": 6,
      "inputModuleId": 6,
      "inputId": 5,
      "color": "#c91847"
    },
    {
      "id": 776,
      "outputModuleId": 5,
      "outputId": 0,
      "inputModuleId": 7,
      "inputId": 1,
      "color": "#0986ad"
    },
    {
      "id": 779,
      "outputModuleId": 184,
      "outputId": 0,
      "inputModuleId": 185,
      "inputId": 17,
      "color": "#c91847"
    },
    {
      "id": 785,
      "outputModuleId": 185,
      "outputId": 0,
      "inputModuleId": 190,
      "inputId": 0,
      "color": "#0986ad"
    },
    {
      "id": 786,
      "outputModuleId": 189,
      "outputId": 1,
      "inputModuleId": 184,
      "inputId": 0,
      "color": "#c9b70e"
    },
    {
      "id": 791,
      "outputModuleId": 189,
      "outputId": 0,
      "inputModuleId": 185,
      "inputId": 5,
      "color": "#0c8e15"
    },
    {
      "id": 793,
      "outputModuleId": 192,
      "outputId": 0,
      "inputModuleId": 185,
      "inputId": 0,
      "color": "#0986ad"
    },
    {
      "id": 794,
      "outputModuleId": 186,
      "outputId": 0,
      "inputModuleId": 189,
      "inputId": 3,
      "color": "#c9b70e"
    },
    {
      "id": 796,
      "outputModuleId": 194,
      "outputId": 0,
      "inputModuleId": 193,
      "inputId": 0,
      "color": "#c9b70e"
    },
    {
      "id": 800,
      "outputModuleId": 196,
      "outputId": 2,
      "inputModuleId": 189,
      "inputId": 1,
      "color": "#c9b70e"
    },
    {
      "id": 801,
      "outputModuleId": 196,
      "outputId": 4,
      "inputModuleId": 189,
      "inputId": 2,
      "color": "#0c8e15"
    },
    {
      "id": 803,
      "outputModuleId": 198,
      "outputId": 0,
      "inputModuleId": 190,
      "inputId": 1,
      "color": "#c9b70e"
    },
    {
      "id": 804,
      "outputModuleId": 189,
      "outputId": 1,
      "inputModuleId": 198,
      "inputId": 4,
      "color": "#0c8e15"
    },
    {
      "id": 809,
      "outputModuleId": 3,
      "outputId": 1,
      "inputModuleId": 197,
      "inputId": 2,
      "color": "#0986ad"
    },
    {
      "id": 806,
      "outputModuleId": 196,
      "outputId": 0,
      "inputModuleId": 197,
      "inputId": 0,
      "color": "#c9b70e"
    },
    {
      "id": 812,
      "outputModuleId": 192,
      "outputId": 1,
      "inputModuleId": 199,
      "inputId": 0,
      "color": "#c91847"
    },
    {
      "id": 765,
      "outputModuleId": 200,
      "outputId": 0,
      "inputModuleId": 1,
      "inputId": 1,
      "color": "#c9b70e"
    },
    {
      "id": 764,
      "outputModuleId": 200,
      "outputId": 1,
      "inputModuleId": 1,
      "inputId": 0,
      "color": "#0986ad"
    },
    {
      "id": 805,
      "outputModuleId": 197,
      "outputId": 0,
      "inputModuleId": 200,
      "inputId": 0,
      "color": "#0986ad"
    },
    {
      "id": 778,
      "outputModuleId": 190,
      "outputId": 0,
      "inputModuleId": 200,
      "inputId": 1,
      "color": "#0c8e15"
    },
    {
      "id": 784,
      "outputModuleId": 188,
      "outputId": 0,
      "inputModuleId": 200,
      "inputId": 2,
      "color": "#c91847"
    },
    {
      "id": 813,
      "outputModuleId": 189,
      "outputId": 2,
      "inputModuleId": 184,
      "inputId": 1,
      "color": "#c9b70e"
    },
    {
      "id": 815,
      "outputModuleId": 189,
      "outputId": 2,
      "inputModuleId": 185,
      "inputId": 10,
      "color": "#c91847"
    },
    {
      "id": 788,
      "outputModuleId": 189,
      "outputId": 2,
      "inputModuleId": 188,
      "inputId": 0,
      "color": "#c91847"
    },
    {
      "id": 802,
      "outputModuleId": 196,
      "outputId": 0,
      "inputModuleId": 199,
      "inputId": 2,
      "color": "#c91847"
    },
    {
      "id": 816,
      "outputModuleId": 199,
      "outputId": 0,
      "inputModuleId": 194,
      "inputId": 2,
      "color": "#0986ad"
    },
    {
      "id": 797,
      "outputModuleId": 193,
      "outputId": 2,
      "inputModuleId": 200,
      "inputId": 3,
      "color": "#0c8e15"
    },
    {
      "id": 824,
      "outputModuleId": 3,
      "outputId": 0,
      "inputModuleId": 201,
      "inputId": 6,
      "color": "#0986ad"
    },
    {
      "id": 825,
      "outputModuleId": 202,
      "outputId": 0,
      "inputModuleId": 201,
      "inputId": 1,
      "color": "#c9b70e"
    },
    {
      "id": 823,
      "outputModuleId": 202,
      "outputId": 1,
      "inputModuleId": 201,
      "inputId": 4,
      "color": "#c91847"
    },
    {
      "id": 826,
      "outputModuleId": 185,
      "outputId": 0,
      "inputModuleId": 201,
      "inputId": 7,
      "color": "#0c8e15"
    },
    {
      "id": 818,
      "outputModuleId": 203,
      "outputId": 0,
      "inputModuleId": 200,
      "inputId": 4,
      "color": "#0c8e15"
    },
    {
      "id": 828,
      "outputModuleId": 201,
      "outputId": 1,
      "inputModuleId": 203,
      "inputId": 0,
      "color": "#0986ad"
    },
    {
      "id": 832,
      "outputModuleId": 205,
      "outputId": 0,
      "inputModuleId": 203,
      "inputId": 1,
      "color": "#c9b70e"
    },
    {
      "id": 829,
      "outputModuleId": 195,
      "outputId": 0,
      "inputModuleId": 205,
      "inputId": 4,
      "color": "#0c8e15"
    },
    {
      "id": 833,
      "outputModuleId": 196,
      "outputId": 4,
      "inputModuleId": 195,
      "inputId": 1,
      "color": "#0c8e15"
    },
    {
      "id": 835,
      "outputModuleId": 201,
      "outputId": 0,
      "inputModuleId": 203,
      "inputId": 2,
      "color": "#0986ad"
    }
  ]
}