{
  "version": "0.6.2b",
  "modules": [
    {
      "plugin": "Core",
      "version": "0.6.2b",
      "model": "AudioInterface",
      "params": [],
      "data": {
        "audio": {
          "driver": 6,
          "deviceName": "Headset Earphone (Sennheiser SC60 for Lync)",
          "offset": 0,
          "maxChannels": 8,
          "sampleRate": 48000,
          "blockSize": 256
        }
      },
      "pos": [
        107,
        1
      ]
    },
    {
      "plugin": "mscHack",
      "version": "0.6.3",
      "model": "Mix_24_4_4",
      "params": [
        {
          "paramId": 161,
          "value": 0.994499445
        },
        {
          "paramId": 162,
          "value": 0.0
        },
        {
          "paramId": 163,
          "value": 0.0
        },
        {
          "paramId": 164,
          "value": 0.0
        },
        {
          "paramId": 65,
          "value": 0.130500033
        },
        {
          "paramId": 97,
          "value": 0.5
        },
        {
          "paramId": 129,
          "value": 0.0314999968
        },
        {
          "paramId": 33,
          "value": 0.0
        },
        {
          "paramId": 1,
          "value": 1.0
        },
        {
          "paramId": 165,
          "value": 0.0
        },
        {
          "paramId": 166,
          "value": 1.0
        },
        {
          "paramId": 167,
          "value": 0.0
        },
        {
          "paramId": 168,
          "value": 0.0
        },
        {
          "paramId": 66,
          "value": 0.5
        },
        {
          "paramId": 98,
          "value": 0.5
        },
        {
          "paramId": 130,
          "value": 0.5
        },
        {
          "paramId": 34,
          "value": 0.0
        },
        {
          "paramId": 2,
          "value": 0.684000015
        },
        {
          "paramId": 169,
          "value": 0.0
        },
        {
          "paramId": 170,
          "value": 0.0
        },
        {
          "paramId": 171,
          "value": 0.0
        },
        {
          "paramId": 172,
          "value": 0.0
        },
        {
          "paramId": 67,
          "value": 0.5
        },
        {
          "paramId": 99,
          "value": 0.5
        },
        {
          "paramId": 131,
          "value": 0.5
        },
        {
          "paramId": 35,
          "value": 0.0
        },
        {
          "paramId": 3,
          "value": 0.549000084
        },
        {
          "paramId": 173,
          "value": 0.0
        },
        {
          "paramId": 174,
          "value": 0.0
        },
        {
          "paramId": 175,
          "value": 0.0
        },
        {
          "paramId": 176,
          "value": 0.0
        },
        {
          "paramId": 68,
          "value": 0.832000613
        },
        {
          "paramId": 100,
          "value": 0.0209999997
        },
        {
          "paramId": 132,
          "value": 0.0
        },
        {
          "paramId": 36,
          "value": -0.335999936
        },
        {
          "paramId": 4,
          "value": 0.535000086
        },
        {
          "paramId": 177,
          "value": 0.0
        },
        {
          "paramId": 178,
          "value": 0.0
        },
        {
          "paramId": 179,
          "value": 0.0
        },
        {
          "paramId": 180,
          "value": 0.0
        },
        {
          "paramId": 69,
          "value": 0.5
        },
        {
          "paramId": 101,
          "value": 0.5
        },
        {
          "paramId": 133,
          "value": 0.5
        },
        {
          "paramId": 37,
          "value": 0.0
        },
        {
          "paramId": 5,
          "value": 0.59100008
        },
        {
          "paramId": 181,
          "value": 0.0
        },
        {
          "paramId": 182,
          "value": 0.0
        },
        {
          "paramId": 183,
          "value": 0.0
        },
        {
          "paramId": 184,
          "value": 0.0
        },
        {
          "paramId": 70,
          "value": 0.5
        },
        {
          "paramId": 102,
          "value": 0.5
        },
        {
          "paramId": 134,
          "value": 0.5
        },
        {
          "paramId": 38,
          "value": 0.0
        },
        {
          "paramId": 6,
          "value": 0.6450001
        },
        {
          "paramId": 185,
          "value": 0.0
        },
        {
          "paramId": 186,
          "value": 0.0
        },
        {
          "paramId": 187,
          "value": 0.0
        },
        {
          "paramId": 188,
          "value": 0.0
        },
        {
          "paramId": 71,
          "value": 0.5
        },
        {
          "paramId": 103,
          "value": 0.5
        },
        {
          "paramId": 135,
          "value": 0.5
        },
        {
          "paramId": 39,
          "value": 0.0
        },
        {
          "paramId": 7,
          "value": 0.0
        },
        {
          "paramId": 189,
          "value": 0.0
        },
        {
          "paramId": 190,
          "value": 0.0
        },
        {
          "paramId": 191,
          "value": 0.0
        },
        {
          "paramId": 192,
          "value": 0.0
        },
        {
          "paramId": 72,
          "value": 0.5
        },
        {
          "paramId": 104,
          "value": 0.5
        },
        {
          "paramId": 136,
          "value": 0.5
        },
        {
          "paramId": 40,
          "value": 0.0
        },
        {
          "paramId": 8,
          "value": 0.0
        },
        {
          "paramId": 193,
          "value": 0.0
        },
        {
          "paramId": 194,
          "value": 0.0
        },
        {
          "paramId": 195,
          "value": 0.0
        },
        {
          "paramId": 196,
          "value": 0.0
        },
        {
          "paramId": 73,
          "value": 0.5
        },
        {
          "paramId": 105,
          "value": 0.5
        },
        {
          "paramId": 137,
          "value": 0.5
        },
        {
          "paramId": 41,
          "value": 0.0
        },
        {
          "paramId": 9,
          "value": 0.0
        },
        {
          "paramId": 197,
          "value": 0.0
        },
        {
          "paramId": 198,
          "value": 0.0
        },
        {
          "paramId": 199,
          "value": 0.0
        },
        {
          "paramId": 200,
          "value": 0.0
        },
        {
          "paramId": 74,
          "value": 0.5
        },
        {
          "paramId": 106,
          "value": 0.5
        },
        {
          "paramId": 138,
          "value": 0.5
        },
        {
          "paramId": 42,
          "value": 0.0
        },
        {
          "paramId": 10,
          "value": 0.0
        },
        {
          "paramId": 201,
          "value": 0.0
        },
        {
          "paramId": 202,
          "value": 0.0
        },
        {
          "paramId": 203,
          "value": 0.0
        },
        {
          "paramId": 204,
          "value": 0.0
        },
        {
          "paramId": 75,
          "value": 0.5
        },
        {
          "paramId": 107,
          "value": 0.5
        },
        {
          "paramId": 139,
          "value": 0.5
        },
        {
          "paramId": 43,
          "value": 0.0
        },
        {
          "paramId": 11,
          "value": 0.0
        },
        {
          "paramId": 205,
          "value": 0.0
        },
        {
          "paramId": 206,
          "value": 0.0
        },
        {
          "paramId": 207,
          "value": 0.0
        },
        {
          "paramId": 208,
          "value": 0.0
        },
        {
          "paramId": 76,
          "value": 0.5
        },
        {
          "paramId": 108,
          "value": 0.5
        },
        {
          "paramId": 140,
          "value": 0.5
        },
        {
          "paramId": 44,
          "value": 0.0
        },
        {
          "paramId": 12,
          "value": 0.0
        },
        {
          "paramId": 209,
          "value": 0.0
        },
        {
          "paramId": 210,
          "value": 0.0
        },
        {
          "paramId": 211,
          "value": 0.0
        },
        {
          "paramId": 212,
          "value": 0.0
        },
        {
          "paramId": 77,
          "value": 0.5
        },
        {
          "paramId": 109,
          "value": 0.5
        },
        {
          "paramId": 141,
          "value": 0.5
        },
        {
          "paramId": 45,
          "value": 0.0
        },
        {
          "paramId": 13,
          "value": 0.0
        },
        {
          "paramId": 213,
          "value": 0.0
        },
        {
          "paramId": 214,
          "value": 0.0
        },
        {
          "paramId": 215,
          "value": 0.0
        },
        {
          "paramId": 216,
          "value": 0.0
        },
        {
          "paramId": 78,
          "value": 0.5
        },
        {
          "paramId": 110,
          "value": 0.5
        },
        {
          "paramId": 142,
          "value": 0.5
        },
        {
          "paramId": 46,
          "value": 0.0
        },
        {
          "paramId": 14,
          "value": 0.0
        },
        {
          "paramId": 217,
          "value": 0.0
        },
        {
          "paramId": 218,
          "value": 0.0
        },
        {
          "paramId": 219,
          "value": 0.0
        },
        {
          "paramId": 220,
          "value": 0.0
        },
        {
          "paramId": 79,
          "value": 0.5
        },
        {
          "paramId": 111,
          "value": 0.5
        },
        {
          "paramId": 143,
          "value": 0.5
        },
        {
          "paramId": 47,
          "value": 0.0
        },
        {
          "paramId": 15,
          "value": 0.0
        },
        {
          "paramId": 221,
          "value": 0.0
        },
        {
          "paramId": 222,
          "value": 0.0
        },
        {
          "paramId": 223,
          "value": 0.0
        },
        {
          "paramId": 224,
          "value": 0.0
        },
        {
          "paramId": 80,
          "value": 0.5
        },
        {
          "paramId": 112,
          "value": 0.5
        },
        {
          "paramId": 144,
          "value": 0.5
        },
        {
          "paramId": 48,
          "value": 0.0
        },
        {
          "paramId": 16,
          "value": 0.0
        },
        {
          "paramId": 225,
          "value": 0.0
        },
        {
          "paramId": 226,
          "value": 0.0
        },
        {
          "paramId": 227,
          "value": 0.0
        },
        {
          "paramId": 228,
          "value": 0.0
        },
        {
          "paramId": 81,
          "value": 0.5
        },
        {
          "paramId": 113,
          "value": 0.5
        },
        {
          "paramId": 145,
          "value": 0.5
        },
        {
          "paramId": 49,
          "value": 0.0
        },
        {
          "paramId": 17,
          "value": 0.0
        },
        {
          "paramId": 229,
          "value": 0.0
        },
        {
          "paramId": 230,
          "value": 0.0
        },
        {
          "paramId": 231,
          "value": 0.0
        },
        {
          "paramId": 232,
          "value": 0.0
        },
        {
          "paramId": 82,
          "value": 0.5
        },
        {
          "paramId": 114,
          "value": 0.5
        },
        {
          "paramId": 146,
          "value": 0.5
        },
        {
          "paramId": 50,
          "value": 0.0
        },
        {
          "paramId": 18,
          "value": 0.0
        },
        {
          "paramId": 233,
          "value": 0.0
        },
        {
          "paramId": 234,
          "value": 0.0
        },
        {
          "paramId": 235,
          "value": 0.0
        },
        {
          "paramId": 236,
          "value": 0.0
        },
        {
          "paramId": 83,
          "value": 0.5
        },
        {
          "paramId": 115,
          "value": 0.5
        },
        {
          "paramId": 147,
          "value": 0.5
        },
        {
          "paramId": 51,
          "value": 0.0
        },
        {
          "paramId": 19,
          "value": 0.0
        },
        {
          "paramId": 237,
          "value": 0.0
        },
        {
          "paramId": 238,
          "value": 0.0
        },
        {
          "paramId": 239,
          "value": 0.0
        },
        {
          "paramId": 240,
          "value": 0.0
        },
        {
          "paramId": 84,
          "value": 0.5
        },
        {
          "paramId": 116,
          "value": 0.5
        },
        {
          "paramId": 148,
          "value": 0.5
        },
        {
          "paramId": 52,
          "value": 0.0
        },
        {
          "paramId": 20,
          "value": 0.0
        },
        {
          "paramId": 241,
          "value": 0.0
        },
        {
          "paramId": 242,
          "value": 0.0
        },
        {
          "paramId": 243,
          "value": 0.0
        },
        {
          "paramId": 244,
          "value": 0.0
        },
        {
          "paramId": 85,
          "value": 0.5
        },
        {
          "paramId": 117,
          "value": 0.5
        },
        {
          "paramId": 149,
          "value": 0.5
        },
        {
          "paramId": 53,
          "value": 0.0
        },
        {
          "paramId": 21,
          "value": 0.0
        },
        {
          "paramId": 245,
          "value": 0.0
        },
        {
          "paramId": 246,
          "value": 0.0
        },
        {
          "paramId": 247,
          "value": 0.0
        },
        {
          "paramId": 248,
          "value": 0.0
        },
        {
          "paramId": 86,
          "value": 0.5
        },
        {
          "paramId": 118,
          "value": 0.5
        },
        {
          "paramId": 150,
          "value": 0.5
        },
        {
          "paramId": 54,
          "value": 0.0
        },
        {
          "paramId": 22,
          "value": 0.0
        },
        {
          "paramId": 249,
          "value": 0.0
        },
        {
          "paramId": 250,
          "value": 0.0
        },
        {
          "paramId": 251,
          "value": 0.0
        },
        {
          "paramId": 252,
          "value": 0.0
        },
        {
          "paramId": 87,
          "value": 0.5
        },
        {
          "paramId": 119,
          "value": 0.5
        },
        {
          "paramId": 151,
          "value": 0.5
        },
        {
          "paramId": 55,
          "value": 0.0
        },
        {
          "paramId": 23,
          "value": 0.0
        },
        {
          "paramId": 253,
          "value": 0.0
        },
        {
          "paramId": 254,
          "value": 0.0
        },
        {
          "paramId": 255,
          "value": 0.0
        },
        {
          "paramId": 256,
          "value": 0.0
        },
        {
          "paramId": 88,
          "value": 0.5
        },
        {
          "paramId": 120,
          "value": 0.5
        },
        {
          "paramId": 152,
          "value": 0.5
        },
        {
          "paramId": 56,
          "value": 0.0
        },
        {
          "paramId": 24,
          "value": 0.0
        },
        {
          "paramId": 257,
          "value": 0.0
        },
        {
          "paramId": 258,
          "value": 0.0
        },
        {
          "paramId": 259,
          "value": 0.0
        },
        {
          "paramId": 260,
          "value": 0.0
        },
        {
          "paramId": 89,
          "value": 0.5
        },
        {
          "paramId": 121,
          "value": 0.5
        },
        {
          "paramId": 153,
          "value": 0.5
        },
        {
          "paramId": 57,
          "value": 0.0
        },
        {
          "paramId": 25,
          "value": 0.701999962
        },
        {
          "paramId": 261,
          "value": 0.0
        },
        {
          "paramId": 262,
          "value": 0.0
        },
        {
          "paramId": 263,
          "value": 0.0
        },
        {
          "paramId": 264,
          "value": 0.0
        },
        {
          "paramId": 90,
          "value": 0.5
        },
        {
          "paramId": 122,
          "value": 0.5
        },
        {
          "paramId": 154,
          "value": 0.5
        },
        {
          "paramId": 58,
          "value": 0.0
        },
        {
          "paramId": 26,
          "value": 0.0
        },
        {
          "paramId": 265,
          "value": 0.0
        },
        {
          "paramId": 266,
          "value": 0.0
        },
        {
          "paramId": 267,
          "value": 0.0
        },
        {
          "paramId": 268,
          "value": 0.0
        },
        {
          "paramId": 91,
          "value": 0.5
        },
        {
          "paramId": 123,
          "value": 0.5
        },
        {
          "paramId": 155,
          "value": 0.5
        },
        {
          "paramId": 59,
          "value": 0.0
        },
        {
          "paramId": 27,
          "value": 0.0
        },
        {
          "paramId": 269,
          "value": 0.0
        },
        {
          "paramId": 270,
          "value": 0.0
        },
        {
          "paramId": 271,
          "value": 0.0
        },
        {
          "paramId": 272,
          "value": 0.0
        },
        {
          "paramId": 92,
          "value": 0.5
        },
        {
          "paramId": 124,
          "value": 0.5
        },
        {
          "paramId": 156,
          "value": 0.5
        },
        {
          "paramId": 60,
          "value": 0.0
        },
        {
          "paramId": 28,
          "value": 0.0
        },
        {
          "paramId": 273,
          "value": 1.0
        },
        {
          "paramId": 93,
          "value": 0.5
        },
        {
          "paramId": 125,
          "value": 0.5
        },
        {
          "paramId": 157,
          "value": 0.5
        },
        {
          "paramId": 61,
          "value": 0.0
        },
        {
          "paramId": 29,
          "value": 0.0
        },
        {
          "paramId": 274,
          "value": 1.0
        },
        {
          "paramId": 94,
          "value": 0.5
        },
        {
          "paramId": 126,
          "value": 0.5
        },
        {
          "paramId": 158,
          "value": 0.445500016
        },
        {
          "paramId": 62,
          "value": 0.0
        },
        {
          "paramId": 30,
          "value": 1.0
        },
        {
          "paramId": 275,
          "value": 0.0
        },
        {
          "paramId": 95,
          "value": 0.5
        },
        {
          "paramId": 127,
          "value": 0.5
        },
        {
          "paramId": 159,
          "value": 0.5
        },
        {
          "paramId": 63,
          "value": 0.0
        },
        {
          "paramId": 31,
          "value": 0.0
        },
        {
          "paramId": 276,
          "value": 0.0
        },
        {
          "paramId": 96,
          "value": 0.5
        },
        {
          "paramId": 128,
          "value": 0.5
        },
        {
          "paramId": 160,
          "value": 0.5
        },
        {
          "paramId": 64,
          "value": 0.0
        },
        {
          "paramId": 32,
          "value": 0.0
        },
        {
          "paramId": 0,
          "value": 0.183499843
        }
      ],
      "data": {
        "m_bMuteStates": [
          false,
          false,
          false,
          false,
          false,
          false,
          false,
          false,
          false,
          false,
          false,
          false,
          false,
          false,
          false,
          false,
          false,
          false,
          false,
          false,
          false,
          false,
          false,
          false,
          false,
          false,
          false,
          false,
          false,
          false,
          false,
          false
        ],
        "m_bSoloStates": [
          false,
          false,
          false,
          false,
          false,
          false,
          false,
          false,
          false,
          false,
          false,
          false,
          false,
          false,
          false,
          false,
          false,
          false,
          false,
          false,
          false,
          false,
          false,
          false,
          false,
          false,
          false,
          false,
          false,
          false,
          false,
          false
        ],
        "m_iRouteGroup": [
          4,
          4,
          4,
          4,
          4,
          4,
          4,
          4,
          4,
          4,
          4,
          4,
          4,
          4,
          4,
          4,
          4,
          4,
          4,
          4,
          4,
          4,
          4,
          4
        ],
        "m_bGroupPreMute": [
          true
        ],
        "m_bGainLevelx2": [
          false
        ],
        "m_bPreFader": [
          true,
          true,
          false,
          false,
          false,
          false,
          false,
          false,
          false,
          false,
          false,
          false,
          false,
          false,
          false,
          false,
          false,
          false,
          false,
          false,
          false,
          false,
          false,
          false,
          false,
          false,
          false,
          false
        ],
        "m_bAuxIgnoreSolo": [
          false
        ]
      },
      "pos": [
        43,
        1
      ]
    },
    {
      "plugin": "Core",
      "version": "0.6.2b",
      "model": "MIDIToCVInterface",
      "params": [],
      "data": {
        "divisions": [
          24,
          6
        ],
        "midi": {
          "driver": -11,
          "deviceName": "QWERTY keyboard (US)",
          "channel": -1
        }
      },
      "pos": [
        5,
        0
      ]
    },
    {
      "plugin": "Fundamental",
      "version": "0.6.2",
      "model": "VCO",
      "params": [
        {
          "paramId": 0,
          "value": 1.0
        },
        {
          "paramId": 1,
          "value": 1.0
        },
        {
          "paramId": 2,
          "value": 0.0
        },
        {
          "paramId": 3,
          "value": 0.0
        },
        {
          "paramId": 5,
          "value": 0.5
        },
        {
          "paramId": 4,
          "value": 0.0
        },
        {
          "paramId": 6,
          "value": 0.0
        }
      ],
      "pos": [
        20,
        0
      ]
    },
    {
      "plugin": "Fundamental",
      "version": "0.6.2",
      "model": "VCF",
      "params": [
        {
          "paramId": 0,
          "value": 1.0
        },
        {
          "paramId": 1,
          "value": 0.5
        },
        {
          "paramId": 2,
          "value": 0.0
        },
        {
          "paramId": 3,
          "value": 0.0
        },
        {
          "paramId": 4,
          "value": 0.0
        }
      ],
      "pos": [
        30,
        0
      ]
    },
    {
      "plugin": "AS",
      "version": "0.6.13",
      "model": "VCA",
      "params": [
        {
          "paramId": 0,
          "value": 1.0
        },
        {
          "paramId": 1,
          "value": 0.5
        },
        {
          "paramId": 2,
          "value": 0.0
        },
        {
          "paramId": 3,
          "value": 1.0
        }
      ],
      "pos": [
        38,
        0
      ]
    },
    {
      "plugin": "Fundamental",
      "version": "0.6.2",
      "model": "ADSR",
      "params": [
        {
          "paramId": 0,
          "value": 0.499500066
        },
        {
          "paramId": 1,
          "value": 0.766999781
        },
        {
          "paramId": 2,
          "value": 0.84649986
        },
        {
          "paramId": 3,
          "value": 0.920000076
        }
      ],
      "pos": [
        49,
        0
      ]
    },
    {
      "plugin": "AmalgamatedHarmonics",
      "version": "0.6.4",
      "model": "Galaxy",
      "params": [
        {
          "paramId": 0,
          "value": 0.0
        },
        {
          "paramId": 1,
          "value": 6.0
        },
        {
          "paramId": 2,
          "value": 1.0
        }
      ],
      "data": {
        "offset": 12,
        "mode": 2,
        "inversions": 2
      },
      "pos": [
        20,
        1
      ]
    },
    {
      "plugin": "AS",
      "version": "0.6.13",
      "model": "BPMClock",
      "params": [
        {
          "paramId": 0,
          "value": 40.0
        },
        {
          "paramId": 1,
          "value": 1.0
        },
        {
          "paramId": 2,
          "value": 4.0
        },
        {
          "paramId": 3,
          "value": 1.0
        },
        {
          "paramId": 5,
          "value": 0.0
        },
        {
          "paramId": 4,
          "value": 0.0
        }
      ],
      "data": {
        "run": [
          1
        ]
      },
      "pos": [
        36,
        1
      ]
    },
    {
      "plugin": "AudibleInstruments",
      "version": "0.6.3",
      "model": "Plaits",
      "params": [
        {
          "paramId": 0,
          "value": 0.0
        },
        {
          "paramId": 1,
          "value": 0.0
        },
        {
          "paramId": 2,
          "value": 0.0
        },
        {
          "paramId": 3,
          "value": 0.5
        },
        {
          "paramId": 4,
          "value": 0.142999664
        },
        {
          "paramId": 5,
          "value": 0.837499619
        },
        {
          "paramId": 6,
          "value": 0.0
        },
        {
          "paramId": 7,
          "value": 0.0
        },
        {
          "paramId": 8,
          "value": 0.0
        }
      ],
      "data": {
        "lowCpu": false,
        "model": 2,
        "lpgColor": 0.5,
        "decay": 0.5
      },
      "pos": [
        8,
        1
      ]
    },
    {
      "plugin": "Bogaudio",
      "version": "0.6.13",
      "model": "Bogaudio-VCO",
      "params": [
        {
          "paramId": 0,
          "value": 0.0
        },
        {
          "paramId": 1,
          "value": 0.0
        },
        {
          "paramId": 2,
          "value": 0.0
        },
        {
          "paramId": 3,
          "value": 0.0
        },
        {
          "paramId": 4,
          "value": 0.0
        },
        {
          "paramId": 5,
          "value": 1.0
        }
      ],
      "pos": [
        2,
        2
      ]
    },
    {
      "plugin": "Autinn",
      "version": "0.6.12",
      "model": "Square",
      "params": [
        {
          "paramId": 0,
          "value": 0.0
        }
      ],
      "pos": [
        28,
        2
      ]
    },
    {
      "plugin": "Bidoo",
      "version": "0.6.26",
      "model": "ForK",
      "params": [
        {
          "paramId": 1,
          "value": 0.0
        },
        {
          "paramId": 2,
          "value": 0.0
        },
        {
          "paramId": 3,
          "value": 350.0
        },
        {
          "paramId": 7,
          "value": 1.0
        },
        {
          "paramId": 4,
          "value": 1900.0
        },
        {
          "paramId": 8,
          "value": 0.300000012
        },
        {
          "paramId": 5,
          "value": 2500.0
        },
        {
          "paramId": 9,
          "value": 0.300000012
        },
        {
          "paramId": 6,
          "value": 3700.0
        },
        {
          "paramId": 10,
          "value": 0.100000001
        }
      ],
      "pos": [
        43,
        2
      ]
    },
    {
      "plugin": "Bidoo",
      "version": "0.6.26",
      "model": "TiARE",
      "params": [
        {
          "paramId": 4,
          "value": 1.0
        },
        {
          "paramId": 5,
          "value": 1.0
        },
        {
          "paramId": 0,
          "value": 0.0
        },
        {
          "paramId": 1,
          "value": 0.0
        },
        {
          "paramId": 6,
          "value": 0.0
        }
      ],
      "data": {
        "phaseDistX": 0.5,
        "phaseDistY": 0.5,
        "freqFactor": 1
      },
      "pos": [
        33,
        2
      ]
    },
    {
      "plugin": "mental",
      "version": "0.6.3",
      "model": "MentalClockDivider",
      "params": [
        {
          "paramId": 0,
          "value": 0.0
        }
      ],
      "pos": [
        56,
        2
      ]
    },
    {
      "plugin": "AS",
      "version": "0.6.13",
      "model": "TriLFO",
      "params": [
        {
          "paramId": 2,
          "value": -3.81399918
        },
        {
          "paramId": 0,
          "value": 1.0
        },
        {
          "paramId": 1,
          "value": 1.0
        },
        {
          "paramId": 5,
          "value": 0.532999754
        },
        {
          "paramId": 3,
          "value": 1.0
        },
        {
          "paramId": 4,
          "value": 1.0
        },
        {
          "paramId": 8,
          "value": -1.98699975
        },
        {
          "paramId": 6,
          "value": 1.0
        },
        {
          "paramId": 7,
          "value": 1.0
        }
      ],
      "pos": [
        64,
        2
      ]
    }
  ],
  "wires": [
    {
      "color": "#c9b70e",
      "outputModuleId": 1,
      "outputId": 0,
      "inputModuleId": 0,
      "inputId": 0
    },
    {
      "color": "#c91847",
      "outputModuleId": 1,
      "outputId": 1,
      "inputModuleId": 0,
      "inputId": 1
    },
    {
      "color": "#c91847",
      "outputModuleId": 4,
      "outputId": 0,
      "inputModuleId": 5,
      "inputId": 1
    },
    {
      "color": "#0c8e15",
      "outputModuleId": 3,
      "outputId": 0,
      "inputModuleId": 4,
      "inputId": 3
    },
    {
      "color": "#0986ad",
      "outputModuleId": 5,
      "outputId": 0,
      "inputModuleId": 1,
      "inputId": 0
    },
    {
      "color": "#c91847",
      "outputModuleId": 6,
      "outputId": 0,
      "inputModuleId": 5,
      "inputId": 0
    },
    {
      "color": "#c91847",
      "outputModuleId": 8,
      "outputId": 3,
      "inputModuleId": 14,
      "inputId": 0
    },
    {
      "color": "#0c8e15",
      "outputModuleId": 7,
      "outputId": 0,
      "inputModuleId": 3,
      "inputId": 0
    },
    {
      "color": "#0986ad",
      "outputModuleId": 8,
      "outputId": 3,
      "inputModuleId": 6,
      "inputId": 4
    },
    {
      "color": "#0c8e15",
      "outputModuleId": 7,
      "outputId": 4,
      "inputModuleId": 9,
      "inputId": 7
    },
    {
      "color": "#0986ad",
      "outputModuleId": 9,
      "outputId": 0,
      "inputModuleId": 1,
      "inputId": 1
    },
    {
      "color": "#c9b70e",
      "outputModuleId": 7,
      "outputId": 2,
      "inputModuleId": 10,
      "inputId": 0
    },
    {
      "color": "#c91847",
      "outputModuleId": 10,
      "outputId": 3,
      "inputModuleId": 1,
      "inputId": 2
    },
    {
      "color": "#0c8e15",
      "outputModuleId": 7,
      "outputId": 5,
      "inputModuleId": 11,
      "inputId": 0
    },
    {
      "color": "#0986ad",
      "outputModuleId": 11,
      "outputId": 0,
      "inputModuleId": 1,
      "inputId": 3
    },
    {
      "color": "#c9b70e",
      "outputModuleId": 7,
      "outputId": 1,
      "inputModuleId": 12,
      "inputId": 1
    },
    {
      "color": "#c91847",
      "outputModuleId": 12,
      "outputId": 0,
      "inputModuleId": 1,
      "inputId": 4
    },
    {
      "color": "#0c8e15",
      "outputModuleId": 13,
      "outputId": 0,
      "inputModuleId": 1,
      "inputId": 5
    },
    {
      "color": "#0986ad",
      "outputModuleId": 7,
      "outputId": 3,
      "inputModuleId": 13,
      "inputId": 0
    },
    {
      "color": "#c9b70e",
      "outputModuleId": 14,
      "outputId": 1,
      "inputModuleId": 7,
      "inputId": 0
    },
    {
      "color": "#c91847",
      "outputModuleId": 10,
      "outputId": 2,
      "inputModuleId": 12,
      "inputId": 2
    },
    {
      "color": "#0c8e15",
      "outputModuleId": 15,
      "outputId": 0,
      "inputModuleId": 12,
      "inputId": 6
    },
    {
      "color": "#0986ad",
      "outputModuleId": 15,
      "outputId": 1,
      "inputModuleId": 12,
      "inputId": 3
    },
    {
      "color": "#c9b70e",
      "outputModuleId": 15,
      "outputId": 4,
      "inputModuleId": 12,
      "inputId": 7
    },
    {
      "color": "#c91847",
      "outputModuleId": 15,
      "outputId": 5,
      "inputModuleId": 12,
      "inputId": 4
    },
    {
      "color": "#0c8e15",
      "outputModuleId": 15,
      "outputId": 9,
      "inputModuleId": 12,
      "inputId": 8
    },
    {
      "color": "#c9b70e",
      "outputModuleId": 15,
      "outputId": 8,
      "inputModuleId": 12,
      "inputId": 5
    },
    {
      "color": "#c91847",
      "outputModuleId": 15,
      "outputId": 2,
      "inputModuleId": 12,
      "inputId": 9
    }
  ]
}